G75*
%MOIN*%
%OFA0B0*%
%FSLAX24Y24*%
%IPPOS*%
%LPD*%
%AMOC8*
5,1,8,0,0,1.08239X$1,22.5*
%
%ADD10C,0.0000*%
D10*
X004150Y000100D02*
X004150Y031596D01*
X043520Y031596D01*
X043520Y000100D01*
X004150Y000100D01*
X021500Y026000D02*
X021502Y026050D01*
X021508Y026100D01*
X021518Y026150D01*
X021531Y026198D01*
X021548Y026246D01*
X021569Y026292D01*
X021593Y026336D01*
X021621Y026378D01*
X021652Y026418D01*
X021686Y026455D01*
X021723Y026490D01*
X021762Y026521D01*
X021803Y026550D01*
X021847Y026575D01*
X021893Y026597D01*
X021940Y026615D01*
X021988Y026629D01*
X022037Y026640D01*
X022087Y026647D01*
X022137Y026650D01*
X022188Y026649D01*
X022238Y026644D01*
X022288Y026635D01*
X022336Y026623D01*
X022384Y026606D01*
X022430Y026586D01*
X022475Y026563D01*
X022518Y026536D01*
X022558Y026506D01*
X022596Y026473D01*
X022631Y026437D01*
X022664Y026398D01*
X022693Y026357D01*
X022719Y026314D01*
X022742Y026269D01*
X022761Y026222D01*
X022776Y026174D01*
X022788Y026125D01*
X022796Y026075D01*
X022800Y026025D01*
X022800Y025975D01*
X022796Y025925D01*
X022788Y025875D01*
X022776Y025826D01*
X022761Y025778D01*
X022742Y025731D01*
X022719Y025686D01*
X022693Y025643D01*
X022664Y025602D01*
X022631Y025563D01*
X022596Y025527D01*
X022558Y025494D01*
X022518Y025464D01*
X022475Y025437D01*
X022430Y025414D01*
X022384Y025394D01*
X022336Y025377D01*
X022288Y025365D01*
X022238Y025356D01*
X022188Y025351D01*
X022137Y025350D01*
X022087Y025353D01*
X022037Y025360D01*
X021988Y025371D01*
X021940Y025385D01*
X021893Y025403D01*
X021847Y025425D01*
X021803Y025450D01*
X021762Y025479D01*
X021723Y025510D01*
X021686Y025545D01*
X021652Y025582D01*
X021621Y025622D01*
X021593Y025664D01*
X021569Y025708D01*
X021548Y025754D01*
X021531Y025802D01*
X021518Y025850D01*
X021508Y025900D01*
X021502Y025950D01*
X021500Y026000D01*
X029500Y026000D02*
X029502Y026050D01*
X029508Y026100D01*
X029518Y026150D01*
X029531Y026198D01*
X029548Y026246D01*
X029569Y026292D01*
X029593Y026336D01*
X029621Y026378D01*
X029652Y026418D01*
X029686Y026455D01*
X029723Y026490D01*
X029762Y026521D01*
X029803Y026550D01*
X029847Y026575D01*
X029893Y026597D01*
X029940Y026615D01*
X029988Y026629D01*
X030037Y026640D01*
X030087Y026647D01*
X030137Y026650D01*
X030188Y026649D01*
X030238Y026644D01*
X030288Y026635D01*
X030336Y026623D01*
X030384Y026606D01*
X030430Y026586D01*
X030475Y026563D01*
X030518Y026536D01*
X030558Y026506D01*
X030596Y026473D01*
X030631Y026437D01*
X030664Y026398D01*
X030693Y026357D01*
X030719Y026314D01*
X030742Y026269D01*
X030761Y026222D01*
X030776Y026174D01*
X030788Y026125D01*
X030796Y026075D01*
X030800Y026025D01*
X030800Y025975D01*
X030796Y025925D01*
X030788Y025875D01*
X030776Y025826D01*
X030761Y025778D01*
X030742Y025731D01*
X030719Y025686D01*
X030693Y025643D01*
X030664Y025602D01*
X030631Y025563D01*
X030596Y025527D01*
X030558Y025494D01*
X030518Y025464D01*
X030475Y025437D01*
X030430Y025414D01*
X030384Y025394D01*
X030336Y025377D01*
X030288Y025365D01*
X030238Y025356D01*
X030188Y025351D01*
X030137Y025350D01*
X030087Y025353D01*
X030037Y025360D01*
X029988Y025371D01*
X029940Y025385D01*
X029893Y025403D01*
X029847Y025425D01*
X029803Y025450D01*
X029762Y025479D01*
X029723Y025510D01*
X029686Y025545D01*
X029652Y025582D01*
X029621Y025622D01*
X029593Y025664D01*
X029569Y025708D01*
X029548Y025754D01*
X029531Y025802D01*
X029518Y025850D01*
X029508Y025900D01*
X029502Y025950D01*
X029500Y026000D01*
M02*
