%
M48
M72
T01C0.0240
T02C0.0276
T03C0.0315
T04C0.0320
T05C0.0350
T06C0.0400
T07C0.0512
T08C0.1300
%
T01
X14650Y22600
T02
X41650Y17494
X41650Y16706
X6150Y3994
X6150Y3206
T03
X6150Y7616
X6150Y9584
X7256Y20100
X8044Y20100
X27544Y15600
X26756Y15600
X32256Y7600
X33044Y7600
X41756Y13100
X42544Y13100
T04
X19650Y4550
X21100Y4600
X21200Y6600
X19650Y8550
X25200Y6600
X27150Y8100
X28150Y8100
X28150Y4600
X27150Y4600
X25100Y4600
X30700Y15100
X32600Y15100
X29100Y18100
X25100Y18100
T05
X33150Y18100
X34150Y18100
T06
X6651Y23974
X7651Y23988
X8651Y24002
X9651Y24016
X10650Y24030
X11650Y24044
X12650Y24058
X13650Y24072
X14650Y24086
X15650Y24100
X21150Y20100
X22150Y20100
X23150Y20100
X29150Y20100
X30150Y20100
X31150Y20100
X21150Y15600
X20150Y15600
X19150Y15600
X18150Y15600
X17150Y15600
X16150Y15600
X15150Y15600
X14150Y15600
X13150Y15600
X12150Y15600
X11150Y15600
X10150Y15600
X9150Y15600
X8150Y15600
X8150Y12600
X9150Y12600
X10150Y12600
X11150Y12600
X12150Y12600
X13150Y12600
X14150Y12600
X15150Y12600
X16150Y12600
X17150Y12600
X18150Y12600
X19150Y12600
X20150Y12600
X21150Y12600
T07
X37288Y4698
X39650Y3911
X42012Y4698
X42012Y9502
X37288Y9502
T08
X22150Y26000
X30150Y26000
M30
