G75*
%MOIN*%
%OFA0B0*%
%FSLAX25Y25*%
%IPPOS*%
%LPD*%
%AMOC8*
5,1,8,0,0,1.08239X$1,22.5*
%
%ADD10C,0.00000*%
D10*
X0001000Y0001000D02*
X0001000Y0140961D01*
X0409701Y0140961D01*
X0409701Y0001000D01*
X0001000Y0001000D01*
X0030500Y0026000D02*
X0030502Y0026161D01*
X0030508Y0026321D01*
X0030518Y0026482D01*
X0030532Y0026642D01*
X0030550Y0026802D01*
X0030571Y0026961D01*
X0030597Y0027120D01*
X0030627Y0027278D01*
X0030660Y0027435D01*
X0030698Y0027592D01*
X0030739Y0027747D01*
X0030784Y0027901D01*
X0030833Y0028054D01*
X0030886Y0028206D01*
X0030942Y0028357D01*
X0031003Y0028506D01*
X0031066Y0028654D01*
X0031134Y0028800D01*
X0031205Y0028944D01*
X0031279Y0029086D01*
X0031357Y0029227D01*
X0031439Y0029365D01*
X0031524Y0029502D01*
X0031612Y0029636D01*
X0031704Y0029768D01*
X0031799Y0029898D01*
X0031897Y0030026D01*
X0031998Y0030151D01*
X0032102Y0030273D01*
X0032209Y0030393D01*
X0032319Y0030510D01*
X0032432Y0030625D01*
X0032548Y0030736D01*
X0032667Y0030845D01*
X0032788Y0030950D01*
X0032912Y0031053D01*
X0033038Y0031153D01*
X0033166Y0031249D01*
X0033297Y0031342D01*
X0033431Y0031432D01*
X0033566Y0031519D01*
X0033704Y0031602D01*
X0033843Y0031682D01*
X0033985Y0031758D01*
X0034128Y0031831D01*
X0034273Y0031900D01*
X0034420Y0031966D01*
X0034568Y0032028D01*
X0034718Y0032086D01*
X0034869Y0032141D01*
X0035022Y0032192D01*
X0035176Y0032239D01*
X0035331Y0032282D01*
X0035487Y0032321D01*
X0035643Y0032357D01*
X0035801Y0032388D01*
X0035959Y0032416D01*
X0036118Y0032440D01*
X0036278Y0032460D01*
X0036438Y0032476D01*
X0036598Y0032488D01*
X0036759Y0032496D01*
X0036920Y0032500D01*
X0037080Y0032500D01*
X0037241Y0032496D01*
X0037402Y0032488D01*
X0037562Y0032476D01*
X0037722Y0032460D01*
X0037882Y0032440D01*
X0038041Y0032416D01*
X0038199Y0032388D01*
X0038357Y0032357D01*
X0038513Y0032321D01*
X0038669Y0032282D01*
X0038824Y0032239D01*
X0038978Y0032192D01*
X0039131Y0032141D01*
X0039282Y0032086D01*
X0039432Y0032028D01*
X0039580Y0031966D01*
X0039727Y0031900D01*
X0039872Y0031831D01*
X0040015Y0031758D01*
X0040157Y0031682D01*
X0040296Y0031602D01*
X0040434Y0031519D01*
X0040569Y0031432D01*
X0040703Y0031342D01*
X0040834Y0031249D01*
X0040962Y0031153D01*
X0041088Y0031053D01*
X0041212Y0030950D01*
X0041333Y0030845D01*
X0041452Y0030736D01*
X0041568Y0030625D01*
X0041681Y0030510D01*
X0041791Y0030393D01*
X0041898Y0030273D01*
X0042002Y0030151D01*
X0042103Y0030026D01*
X0042201Y0029898D01*
X0042296Y0029768D01*
X0042388Y0029636D01*
X0042476Y0029502D01*
X0042561Y0029365D01*
X0042643Y0029227D01*
X0042721Y0029086D01*
X0042795Y0028944D01*
X0042866Y0028800D01*
X0042934Y0028654D01*
X0042997Y0028506D01*
X0043058Y0028357D01*
X0043114Y0028206D01*
X0043167Y0028054D01*
X0043216Y0027901D01*
X0043261Y0027747D01*
X0043302Y0027592D01*
X0043340Y0027435D01*
X0043373Y0027278D01*
X0043403Y0027120D01*
X0043429Y0026961D01*
X0043450Y0026802D01*
X0043468Y0026642D01*
X0043482Y0026482D01*
X0043492Y0026321D01*
X0043498Y0026161D01*
X0043500Y0026000D01*
X0043498Y0025839D01*
X0043492Y0025679D01*
X0043482Y0025518D01*
X0043468Y0025358D01*
X0043450Y0025198D01*
X0043429Y0025039D01*
X0043403Y0024880D01*
X0043373Y0024722D01*
X0043340Y0024565D01*
X0043302Y0024408D01*
X0043261Y0024253D01*
X0043216Y0024099D01*
X0043167Y0023946D01*
X0043114Y0023794D01*
X0043058Y0023643D01*
X0042997Y0023494D01*
X0042934Y0023346D01*
X0042866Y0023200D01*
X0042795Y0023056D01*
X0042721Y0022914D01*
X0042643Y0022773D01*
X0042561Y0022635D01*
X0042476Y0022498D01*
X0042388Y0022364D01*
X0042296Y0022232D01*
X0042201Y0022102D01*
X0042103Y0021974D01*
X0042002Y0021849D01*
X0041898Y0021727D01*
X0041791Y0021607D01*
X0041681Y0021490D01*
X0041568Y0021375D01*
X0041452Y0021264D01*
X0041333Y0021155D01*
X0041212Y0021050D01*
X0041088Y0020947D01*
X0040962Y0020847D01*
X0040834Y0020751D01*
X0040703Y0020658D01*
X0040569Y0020568D01*
X0040434Y0020481D01*
X0040296Y0020398D01*
X0040157Y0020318D01*
X0040015Y0020242D01*
X0039872Y0020169D01*
X0039727Y0020100D01*
X0039580Y0020034D01*
X0039432Y0019972D01*
X0039282Y0019914D01*
X0039131Y0019859D01*
X0038978Y0019808D01*
X0038824Y0019761D01*
X0038669Y0019718D01*
X0038513Y0019679D01*
X0038357Y0019643D01*
X0038199Y0019612D01*
X0038041Y0019584D01*
X0037882Y0019560D01*
X0037722Y0019540D01*
X0037562Y0019524D01*
X0037402Y0019512D01*
X0037241Y0019504D01*
X0037080Y0019500D01*
X0036920Y0019500D01*
X0036759Y0019504D01*
X0036598Y0019512D01*
X0036438Y0019524D01*
X0036278Y0019540D01*
X0036118Y0019560D01*
X0035959Y0019584D01*
X0035801Y0019612D01*
X0035643Y0019643D01*
X0035487Y0019679D01*
X0035331Y0019718D01*
X0035176Y0019761D01*
X0035022Y0019808D01*
X0034869Y0019859D01*
X0034718Y0019914D01*
X0034568Y0019972D01*
X0034420Y0020034D01*
X0034273Y0020100D01*
X0034128Y0020169D01*
X0033985Y0020242D01*
X0033843Y0020318D01*
X0033704Y0020398D01*
X0033566Y0020481D01*
X0033431Y0020568D01*
X0033297Y0020658D01*
X0033166Y0020751D01*
X0033038Y0020847D01*
X0032912Y0020947D01*
X0032788Y0021050D01*
X0032667Y0021155D01*
X0032548Y0021264D01*
X0032432Y0021375D01*
X0032319Y0021490D01*
X0032209Y0021607D01*
X0032102Y0021727D01*
X0031998Y0021849D01*
X0031897Y0021974D01*
X0031799Y0022102D01*
X0031704Y0022232D01*
X0031612Y0022364D01*
X0031524Y0022498D01*
X0031439Y0022635D01*
X0031357Y0022773D01*
X0031279Y0022914D01*
X0031205Y0023056D01*
X0031134Y0023200D01*
X0031066Y0023346D01*
X0031003Y0023494D01*
X0030942Y0023643D01*
X0030886Y0023794D01*
X0030833Y0023946D01*
X0030784Y0024099D01*
X0030739Y0024253D01*
X0030698Y0024408D01*
X0030660Y0024565D01*
X0030627Y0024722D01*
X0030597Y0024880D01*
X0030571Y0025039D01*
X0030550Y0025198D01*
X0030532Y0025358D01*
X0030518Y0025518D01*
X0030508Y0025679D01*
X0030502Y0025839D01*
X0030500Y0026000D01*
X0030500Y0111000D02*
X0030502Y0111161D01*
X0030508Y0111321D01*
X0030518Y0111482D01*
X0030532Y0111642D01*
X0030550Y0111802D01*
X0030571Y0111961D01*
X0030597Y0112120D01*
X0030627Y0112278D01*
X0030660Y0112435D01*
X0030698Y0112592D01*
X0030739Y0112747D01*
X0030784Y0112901D01*
X0030833Y0113054D01*
X0030886Y0113206D01*
X0030942Y0113357D01*
X0031003Y0113506D01*
X0031066Y0113654D01*
X0031134Y0113800D01*
X0031205Y0113944D01*
X0031279Y0114086D01*
X0031357Y0114227D01*
X0031439Y0114365D01*
X0031524Y0114502D01*
X0031612Y0114636D01*
X0031704Y0114768D01*
X0031799Y0114898D01*
X0031897Y0115026D01*
X0031998Y0115151D01*
X0032102Y0115273D01*
X0032209Y0115393D01*
X0032319Y0115510D01*
X0032432Y0115625D01*
X0032548Y0115736D01*
X0032667Y0115845D01*
X0032788Y0115950D01*
X0032912Y0116053D01*
X0033038Y0116153D01*
X0033166Y0116249D01*
X0033297Y0116342D01*
X0033431Y0116432D01*
X0033566Y0116519D01*
X0033704Y0116602D01*
X0033843Y0116682D01*
X0033985Y0116758D01*
X0034128Y0116831D01*
X0034273Y0116900D01*
X0034420Y0116966D01*
X0034568Y0117028D01*
X0034718Y0117086D01*
X0034869Y0117141D01*
X0035022Y0117192D01*
X0035176Y0117239D01*
X0035331Y0117282D01*
X0035487Y0117321D01*
X0035643Y0117357D01*
X0035801Y0117388D01*
X0035959Y0117416D01*
X0036118Y0117440D01*
X0036278Y0117460D01*
X0036438Y0117476D01*
X0036598Y0117488D01*
X0036759Y0117496D01*
X0036920Y0117500D01*
X0037080Y0117500D01*
X0037241Y0117496D01*
X0037402Y0117488D01*
X0037562Y0117476D01*
X0037722Y0117460D01*
X0037882Y0117440D01*
X0038041Y0117416D01*
X0038199Y0117388D01*
X0038357Y0117357D01*
X0038513Y0117321D01*
X0038669Y0117282D01*
X0038824Y0117239D01*
X0038978Y0117192D01*
X0039131Y0117141D01*
X0039282Y0117086D01*
X0039432Y0117028D01*
X0039580Y0116966D01*
X0039727Y0116900D01*
X0039872Y0116831D01*
X0040015Y0116758D01*
X0040157Y0116682D01*
X0040296Y0116602D01*
X0040434Y0116519D01*
X0040569Y0116432D01*
X0040703Y0116342D01*
X0040834Y0116249D01*
X0040962Y0116153D01*
X0041088Y0116053D01*
X0041212Y0115950D01*
X0041333Y0115845D01*
X0041452Y0115736D01*
X0041568Y0115625D01*
X0041681Y0115510D01*
X0041791Y0115393D01*
X0041898Y0115273D01*
X0042002Y0115151D01*
X0042103Y0115026D01*
X0042201Y0114898D01*
X0042296Y0114768D01*
X0042388Y0114636D01*
X0042476Y0114502D01*
X0042561Y0114365D01*
X0042643Y0114227D01*
X0042721Y0114086D01*
X0042795Y0113944D01*
X0042866Y0113800D01*
X0042934Y0113654D01*
X0042997Y0113506D01*
X0043058Y0113357D01*
X0043114Y0113206D01*
X0043167Y0113054D01*
X0043216Y0112901D01*
X0043261Y0112747D01*
X0043302Y0112592D01*
X0043340Y0112435D01*
X0043373Y0112278D01*
X0043403Y0112120D01*
X0043429Y0111961D01*
X0043450Y0111802D01*
X0043468Y0111642D01*
X0043482Y0111482D01*
X0043492Y0111321D01*
X0043498Y0111161D01*
X0043500Y0111000D01*
X0043498Y0110839D01*
X0043492Y0110679D01*
X0043482Y0110518D01*
X0043468Y0110358D01*
X0043450Y0110198D01*
X0043429Y0110039D01*
X0043403Y0109880D01*
X0043373Y0109722D01*
X0043340Y0109565D01*
X0043302Y0109408D01*
X0043261Y0109253D01*
X0043216Y0109099D01*
X0043167Y0108946D01*
X0043114Y0108794D01*
X0043058Y0108643D01*
X0042997Y0108494D01*
X0042934Y0108346D01*
X0042866Y0108200D01*
X0042795Y0108056D01*
X0042721Y0107914D01*
X0042643Y0107773D01*
X0042561Y0107635D01*
X0042476Y0107498D01*
X0042388Y0107364D01*
X0042296Y0107232D01*
X0042201Y0107102D01*
X0042103Y0106974D01*
X0042002Y0106849D01*
X0041898Y0106727D01*
X0041791Y0106607D01*
X0041681Y0106490D01*
X0041568Y0106375D01*
X0041452Y0106264D01*
X0041333Y0106155D01*
X0041212Y0106050D01*
X0041088Y0105947D01*
X0040962Y0105847D01*
X0040834Y0105751D01*
X0040703Y0105658D01*
X0040569Y0105568D01*
X0040434Y0105481D01*
X0040296Y0105398D01*
X0040157Y0105318D01*
X0040015Y0105242D01*
X0039872Y0105169D01*
X0039727Y0105100D01*
X0039580Y0105034D01*
X0039432Y0104972D01*
X0039282Y0104914D01*
X0039131Y0104859D01*
X0038978Y0104808D01*
X0038824Y0104761D01*
X0038669Y0104718D01*
X0038513Y0104679D01*
X0038357Y0104643D01*
X0038199Y0104612D01*
X0038041Y0104584D01*
X0037882Y0104560D01*
X0037722Y0104540D01*
X0037562Y0104524D01*
X0037402Y0104512D01*
X0037241Y0104504D01*
X0037080Y0104500D01*
X0036920Y0104500D01*
X0036759Y0104504D01*
X0036598Y0104512D01*
X0036438Y0104524D01*
X0036278Y0104540D01*
X0036118Y0104560D01*
X0035959Y0104584D01*
X0035801Y0104612D01*
X0035643Y0104643D01*
X0035487Y0104679D01*
X0035331Y0104718D01*
X0035176Y0104761D01*
X0035022Y0104808D01*
X0034869Y0104859D01*
X0034718Y0104914D01*
X0034568Y0104972D01*
X0034420Y0105034D01*
X0034273Y0105100D01*
X0034128Y0105169D01*
X0033985Y0105242D01*
X0033843Y0105318D01*
X0033704Y0105398D01*
X0033566Y0105481D01*
X0033431Y0105568D01*
X0033297Y0105658D01*
X0033166Y0105751D01*
X0033038Y0105847D01*
X0032912Y0105947D01*
X0032788Y0106050D01*
X0032667Y0106155D01*
X0032548Y0106264D01*
X0032432Y0106375D01*
X0032319Y0106490D01*
X0032209Y0106607D01*
X0032102Y0106727D01*
X0031998Y0106849D01*
X0031897Y0106974D01*
X0031799Y0107102D01*
X0031704Y0107232D01*
X0031612Y0107364D01*
X0031524Y0107498D01*
X0031439Y0107635D01*
X0031357Y0107773D01*
X0031279Y0107914D01*
X0031205Y0108056D01*
X0031134Y0108200D01*
X0031066Y0108346D01*
X0031003Y0108494D01*
X0030942Y0108643D01*
X0030886Y0108794D01*
X0030833Y0108946D01*
X0030784Y0109099D01*
X0030739Y0109253D01*
X0030698Y0109408D01*
X0030660Y0109565D01*
X0030627Y0109722D01*
X0030597Y0109880D01*
X0030571Y0110039D01*
X0030550Y0110198D01*
X0030532Y0110358D01*
X0030518Y0110518D01*
X0030508Y0110679D01*
X0030502Y0110839D01*
X0030500Y0111000D01*
M02*
