%
M48
M72
T01C0.0240
T02C0.0276
T03C0.0300
T04C0.0354
T05C0.0400
T06C0.1300
%
T01
X12130Y12160
T02
X4600Y7494
X4600Y6706
X38100Y6994
X38100Y6206
T03
X35100Y8116
X35100Y10084
T04
X22100Y2100
X19100Y2100
T05
X19100Y5100
X18100Y5100
X17100Y5100
X16100Y5100
X15100Y5100
X20100Y5100
X21100Y5100
X22100Y5100
X23100Y5100
X24100Y5100
X25100Y5100
X26100Y5100
X27100Y5100
X28100Y5100
X28100Y8100
X27100Y8100
X26100Y8100
X25100Y8100
X24100Y8100
X23100Y8100
X22100Y8100
X21100Y8100
X20100Y8100
X19100Y8100
X18100Y8100
X17100Y8100
X16100Y8100
X15100Y8100
X9600Y10100
X9600Y11100
X9600Y12100
X24100Y12600
X25100Y12600
X26100Y12600
X27100Y12600
X28100Y12600
X29100Y12600
X30100Y12600
X31100Y12600
X32100Y12600
X33100Y12600
X9600Y3600
X9600Y2600
X9600Y1600
T06
X3700Y2600
X3700Y11100
M30
