G75*
%MOIN*%
%OFA0B0*%
%FSLAX25Y25*%
%IPPOS*%
%LPD*%
%AMOC8*
5,1,8,0,0,1.08239X$1,22.5*
%
%ADD10C,0.06299*%
%ADD11C,0.06000*%
%ADD12C,0.07400*%
%ADD13R,0.07874X0.04724*%
%ADD14R,0.04724X0.07874*%
%ADD15C,0.01181*%
%ADD16R,0.05512X0.04724*%
%ADD17C,0.01772*%
%ADD18C,0.01000*%
%ADD19R,0.03543X0.03150*%
%ADD20C,0.06600*%
%ADD21R,0.03937X0.04331*%
%ADD22C,0.00800*%
%ADD23R,0.00800X0.00800*%
%ADD24C,0.04000*%
D10*
X0122563Y0025022D03*
X0130437Y0025022D03*
X0130437Y0310022D03*
X0122563Y0310022D03*
D11*
X0168500Y0280022D02*
X0174500Y0280022D01*
X0174500Y0270022D02*
X0168500Y0270022D01*
X0168500Y0260022D02*
X0174500Y0260022D01*
X0079500Y0155022D02*
X0073500Y0155022D01*
X0073500Y0145022D02*
X0079500Y0145022D01*
X0079500Y0135022D02*
X0073500Y0135022D01*
D12*
X0111500Y0135022D03*
X0111500Y0125022D03*
X0111500Y0115022D03*
X0111500Y0105022D03*
X0111500Y0095022D03*
X0141500Y0095022D03*
X0141500Y0105022D03*
X0141500Y0115022D03*
X0141500Y0125022D03*
X0141500Y0135022D03*
X0141500Y0145022D03*
X0141500Y0155022D03*
X0141500Y0165022D03*
X0141500Y0175022D03*
X0141500Y0185022D03*
X0141500Y0195022D03*
X0141500Y0205022D03*
X0141500Y0215022D03*
X0141500Y0225022D03*
X0111500Y0225022D03*
X0111500Y0215022D03*
X0111500Y0205022D03*
X0111500Y0195022D03*
X0111500Y0185022D03*
X0111500Y0175022D03*
X0111500Y0165022D03*
X0111500Y0155022D03*
X0111500Y0145022D03*
X0171500Y0145022D03*
X0171500Y0135022D03*
X0171500Y0125022D03*
X0171500Y0115022D03*
X0171500Y0105022D03*
X0171500Y0095022D03*
X0171500Y0085022D03*
X0171500Y0155022D03*
X0171500Y0165022D03*
X0171500Y0175022D03*
X0171500Y0190022D03*
X0171500Y0220022D03*
D13*
X0081500Y0278723D03*
X0081500Y0291321D03*
D14*
X0075201Y0180022D03*
X0087799Y0180022D03*
D15*
X0180122Y0220191D02*
X0182878Y0220191D01*
X0180122Y0220191D02*
X0180122Y0222947D01*
X0182878Y0222947D01*
X0182878Y0220191D01*
X0182878Y0221371D02*
X0180122Y0221371D01*
X0180122Y0222551D02*
X0182878Y0222551D01*
X0182878Y0227097D02*
X0180122Y0227097D01*
X0180122Y0229853D01*
X0182878Y0229853D01*
X0182878Y0227097D01*
X0182878Y0228277D02*
X0180122Y0228277D01*
X0180122Y0229457D02*
X0182878Y0229457D01*
X0182878Y0237947D02*
X0180122Y0237947D01*
X0182878Y0237947D02*
X0182878Y0235191D01*
X0180122Y0235191D01*
X0180122Y0237947D01*
X0180122Y0236371D02*
X0182878Y0236371D01*
X0182878Y0237551D02*
X0180122Y0237551D01*
X0180122Y0244853D02*
X0182878Y0244853D01*
X0182878Y0242097D01*
X0180122Y0242097D01*
X0180122Y0244853D01*
X0180122Y0243277D02*
X0182878Y0243277D01*
X0182878Y0244457D02*
X0180122Y0244457D01*
D16*
X0081500Y0090928D03*
X0081500Y0079117D03*
D17*
X0198636Y0090298D02*
X0204364Y0090298D01*
X0204364Y0095022D02*
X0198636Y0095022D01*
X0198636Y0099746D02*
X0204364Y0099746D01*
D18*
X0081500Y0080022D02*
X0076500Y0085022D01*
X0076500Y0135022D01*
X0076500Y0145022D02*
X0056500Y0145022D01*
X0056500Y0160022D01*
X0076500Y0180022D01*
X0075201Y0180022D01*
X0086500Y0180022D02*
X0087799Y0180022D01*
X0086500Y0180022D02*
X0086500Y0120022D01*
X0116500Y0120022D01*
X0136500Y0100022D01*
X0136500Y0085022D01*
X0171500Y0085022D01*
X0171500Y0115022D02*
X0161500Y0115022D01*
X0141500Y0095022D01*
X0141500Y0105022D02*
X0166500Y0130022D01*
X0166500Y0145022D01*
X0171500Y0145022D01*
X0171500Y0155022D02*
X0161500Y0155022D01*
X0161500Y0135022D01*
X0141500Y0115022D01*
X0136500Y0110022D02*
X0111500Y0135022D01*
X0111500Y0145022D02*
X0136500Y0120022D01*
X0141500Y0125022D02*
X0156500Y0140022D01*
X0156500Y0165022D01*
X0171500Y0165022D01*
X0171500Y0175022D02*
X0171500Y0190022D01*
X0176500Y0195022D02*
X0171500Y0200022D01*
X0111500Y0200022D01*
X0111500Y0195022D01*
X0106500Y0185022D02*
X0106500Y0155022D01*
X0111500Y0155022D01*
X0111500Y0165022D02*
X0131500Y0165022D01*
X0141500Y0155022D01*
X0141500Y0145022D01*
X0111500Y0115022D02*
X0081500Y0115022D01*
X0081500Y0113369D01*
X0081500Y0106676D02*
X0081500Y0090928D01*
X0081500Y0090022D01*
X0081500Y0080022D02*
X0081500Y0079117D01*
X0116500Y0055022D02*
X0116500Y0050022D01*
X0126303Y0050022D01*
X0127563Y0048762D01*
X0127563Y0041282D02*
X0122760Y0041282D01*
X0121500Y0040022D01*
X0121500Y0026085D01*
X0122563Y0025022D01*
X0130437Y0025022D02*
X0174500Y0025022D01*
X0207500Y0058022D01*
X0207500Y0093022D01*
X0205500Y0095022D01*
X0201500Y0095022D01*
X0197500Y0095022D01*
X0197500Y0099746D02*
X0197500Y0100022D01*
X0195500Y0102022D01*
X0195500Y0103022D01*
X0197500Y0099746D02*
X0201500Y0099746D01*
X0205500Y0099746D01*
X0205500Y0095022D02*
X0201500Y0095022D01*
X0201500Y0090298D02*
X0197500Y0090298D01*
X0197500Y0090022D01*
X0195500Y0088022D01*
X0195500Y0087022D01*
X0201500Y0090298D02*
X0205500Y0090298D01*
X0176500Y0050022D02*
X0166500Y0050022D01*
X0161500Y0055022D01*
X0116500Y0055022D01*
X0135831Y0045022D02*
X0191500Y0045022D01*
X0191500Y0270022D01*
X0181500Y0280022D01*
X0171500Y0280022D01*
X0171500Y0270022D02*
X0161500Y0270022D01*
X0121500Y0310022D01*
X0122563Y0310022D01*
X0081500Y0290022D02*
X0111500Y0260022D01*
X0171500Y0260022D01*
X0171500Y0255022D02*
X0096500Y0255022D01*
X0081500Y0270022D01*
X0081500Y0268369D01*
X0081500Y0261676D02*
X0081500Y0260022D01*
X0071500Y0260022D01*
X0071500Y0270022D01*
X0081500Y0280022D01*
X0081500Y0278723D01*
X0081500Y0290022D02*
X0081500Y0291321D01*
X0081500Y0260022D02*
X0076500Y0255022D01*
X0076500Y0254865D01*
X0076500Y0235180D02*
X0076500Y0235022D01*
X0101500Y0235022D01*
X0111500Y0225022D01*
X0116500Y0210022D02*
X0081500Y0210022D01*
X0106500Y0185022D01*
X0116500Y0210022D02*
X0136500Y0230022D01*
X0181500Y0230022D01*
X0181500Y0228475D01*
X0181500Y0230022D02*
X0181500Y0235022D01*
X0181500Y0236569D01*
X0181500Y0235022D02*
X0186500Y0240022D01*
X0186500Y0270022D01*
X0171500Y0270022D01*
X0171500Y0255022D02*
X0181500Y0245022D01*
X0181500Y0243475D01*
X0181500Y0221569D02*
X0181500Y0220022D01*
X0171500Y0220022D01*
X0176500Y0195022D02*
X0176500Y0050022D01*
X0061500Y0210022D02*
X0056500Y0215022D01*
X0056500Y0235022D01*
X0076500Y0235022D01*
D19*
X0127563Y0048762D03*
X0127563Y0041282D03*
X0135831Y0045022D03*
D20*
X0076500Y0235180D03*
X0076500Y0254865D03*
D21*
X0081500Y0261676D03*
X0081500Y0268369D03*
X0081500Y0113369D03*
X0081500Y0106676D03*
D22*
X0081500Y0210022D02*
X0081500Y0225022D01*
X0066500Y0225022D01*
X0064000Y0220022D02*
X0081500Y0220022D01*
X0079000Y0217522D02*
X0061500Y0217522D01*
X0061500Y0212522D02*
X0076500Y0212522D01*
X0081500Y0215022D02*
X0066500Y0215022D01*
X0061500Y0210022D02*
X0061500Y0227522D01*
X0076500Y0227522D01*
X0079000Y0222522D02*
X0061500Y0222522D01*
D23*
X0061500Y0210022D03*
X0081500Y0210022D03*
D24*
X0136500Y0120022D03*
X0136500Y0110022D03*
X0195500Y0103022D03*
X0195500Y0087022D03*
M02*
