G75*
%MOIN*%
%OFA0B0*%
%FSLAX25Y25*%
%IPPOS*%
%LPD*%
%AMOC8*
5,1,8,0,0,1.08239X$1,22.5*
%
%ADD10C,0.06299*%
%ADD11C,0.06000*%
%ADD12C,0.07400*%
%ADD13R,0.04724X0.07874*%
%ADD14C,0.01181*%
%ADD15R,0.04724X0.05512*%
%ADD16C,0.01772*%
%ADD17C,0.01000*%
%ADD18R,0.03543X0.03150*%
%ADD19C,0.06600*%
%ADD20R,0.03937X0.04331*%
%ADD21R,0.04331X0.03937*%
%ADD22C,0.00800*%
%ADD23R,0.00800X0.00800*%
%ADD24C,0.04000*%
D10*
X0046000Y0067063D03*
X0046000Y0074937D03*
X0381000Y0069937D03*
X0381000Y0062063D03*
D11*
X0099000Y0036000D02*
X0093000Y0036000D01*
X0093000Y0026000D02*
X0099000Y0026000D01*
X0099000Y0016000D02*
X0093000Y0016000D01*
X0093000Y0101000D02*
X0099000Y0101000D01*
X0099000Y0111000D02*
X0093000Y0111000D01*
X0093000Y0121000D02*
X0099000Y0121000D01*
D12*
X0151000Y0081000D03*
X0161000Y0081000D03*
X0171000Y0081000D03*
X0181000Y0081000D03*
X0191000Y0081000D03*
X0201000Y0081000D03*
X0211000Y0081000D03*
X0221000Y0081000D03*
X0231000Y0081000D03*
X0241000Y0081000D03*
X0251000Y0081000D03*
X0261000Y0081000D03*
X0271000Y0081000D03*
X0281000Y0081000D03*
X0281000Y0051000D03*
X0271000Y0051000D03*
X0261000Y0051000D03*
X0251000Y0051000D03*
X0241000Y0051000D03*
X0231000Y0051000D03*
X0221000Y0051000D03*
X0211000Y0051000D03*
X0201000Y0051000D03*
X0191000Y0051000D03*
X0181000Y0051000D03*
X0171000Y0051000D03*
X0161000Y0051000D03*
X0151000Y0051000D03*
X0191000Y0021000D03*
X0221000Y0021000D03*
X0241000Y0126000D03*
X0251000Y0126000D03*
X0261000Y0126000D03*
X0271000Y0126000D03*
X0281000Y0126000D03*
X0291000Y0126000D03*
X0301000Y0126000D03*
X0311000Y0126000D03*
X0321000Y0126000D03*
X0331000Y0126000D03*
D13*
X0327299Y0111000D03*
X0314701Y0111000D03*
X0127299Y0121000D03*
X0114701Y0121000D03*
D14*
X0179622Y0023075D02*
X0182378Y0023075D01*
X0179622Y0023075D02*
X0179622Y0025831D01*
X0182378Y0025831D01*
X0182378Y0023075D01*
X0182378Y0024255D02*
X0179622Y0024255D01*
X0179622Y0025435D02*
X0182378Y0025435D01*
X0170831Y0022378D02*
X0170831Y0019622D01*
X0168075Y0019622D01*
X0168075Y0022378D01*
X0170831Y0022378D01*
X0170831Y0020802D02*
X0168075Y0020802D01*
X0168075Y0021982D02*
X0170831Y0021982D01*
X0163925Y0022378D02*
X0163925Y0019622D01*
X0161169Y0019622D01*
X0161169Y0022378D01*
X0163925Y0022378D01*
X0163925Y0020802D02*
X0161169Y0020802D01*
X0161169Y0021982D02*
X0163925Y0021982D01*
X0179622Y0016169D02*
X0182378Y0016169D01*
X0179622Y0016169D02*
X0179622Y0018925D01*
X0182378Y0018925D01*
X0182378Y0016169D01*
X0182378Y0017349D02*
X0179622Y0017349D01*
X0179622Y0018529D02*
X0182378Y0018529D01*
D15*
X0325094Y0021000D03*
X0336906Y0021000D03*
D16*
X0240724Y0018136D02*
X0240724Y0023864D01*
X0236000Y0023864D02*
X0236000Y0018136D01*
X0231276Y0018136D02*
X0231276Y0023864D01*
D17*
X0087100Y0026200D02*
X0053800Y0059500D01*
X0095200Y0100900D01*
X0096000Y0101000D01*
X0096000Y0111000D02*
X0096100Y0111700D01*
X0117700Y0133300D01*
X0281500Y0133300D01*
X0286000Y0128800D01*
X0286000Y0123400D01*
X0297700Y0111700D01*
X0313900Y0111700D01*
X0314701Y0111000D01*
X0327299Y0111000D02*
X0327400Y0111700D01*
X0327400Y0121600D01*
X0331000Y0125200D01*
X0331000Y0126000D01*
X0351000Y0100843D02*
X0350800Y0100000D01*
X0307600Y0100000D01*
X0283300Y0075700D01*
X0235600Y0075700D01*
X0231100Y0080200D01*
X0231000Y0081000D01*
X0230200Y0081100D01*
X0221200Y0081100D01*
X0221000Y0081000D01*
X0220300Y0080200D01*
X0211300Y0071200D01*
X0211300Y0051400D01*
X0211000Y0051000D01*
X0221000Y0051000D02*
X0221200Y0050500D01*
X0226600Y0045100D01*
X0226600Y0026200D01*
X0188800Y0026200D01*
X0187900Y0025300D01*
X0181600Y0025300D01*
X0181000Y0024453D01*
X0180700Y0024400D01*
X0169900Y0013600D01*
X0164500Y0013600D01*
X0162700Y0015400D01*
X0133900Y0015400D01*
X0132100Y0013600D01*
X0127600Y0013600D01*
X0126700Y0014500D01*
X0126700Y0019900D01*
X0127600Y0020800D01*
X0131200Y0020800D01*
X0133900Y0023500D01*
X0133900Y0026200D01*
X0132100Y0028000D01*
X0097900Y0028000D01*
X0096100Y0026200D01*
X0096000Y0026000D01*
X0095200Y0026200D01*
X0087100Y0026200D01*
X0096100Y0016300D02*
X0100600Y0020800D01*
X0121300Y0020800D01*
X0121669Y0021000D01*
X0124900Y0020800D02*
X0126700Y0022600D01*
X0127600Y0022600D01*
X0129400Y0024400D01*
X0129937Y0024740D01*
X0124900Y0020800D02*
X0124900Y0013600D01*
X0126700Y0011800D01*
X0335500Y0011800D01*
X0380500Y0056800D01*
X0380500Y0061300D01*
X0381000Y0062063D01*
X0380500Y0069400D02*
X0365200Y0069400D01*
X0354400Y0058600D01*
X0350800Y0058600D01*
X0351000Y0056000D01*
X0337300Y0055900D02*
X0336000Y0056000D01*
X0337300Y0055900D02*
X0337300Y0021700D01*
X0336906Y0021000D01*
X0336400Y0020800D01*
X0331900Y0020800D01*
X0325600Y0014500D01*
X0238300Y0014500D01*
X0235600Y0017200D01*
X0236000Y0017000D01*
X0236000Y0021000D01*
X0236000Y0025000D01*
X0231276Y0025000D02*
X0231276Y0021000D01*
X0231100Y0025300D01*
X0231100Y0050500D01*
X0231000Y0051000D01*
X0241000Y0051000D02*
X0241000Y0025300D01*
X0240724Y0021000D01*
X0240724Y0017000D01*
X0235600Y0017200D02*
X0232900Y0014500D01*
X0231100Y0014500D01*
X0226600Y0019000D01*
X0226600Y0026200D01*
X0231276Y0021000D02*
X0231276Y0017000D01*
X0240724Y0021000D02*
X0240724Y0025000D01*
X0262600Y0021700D02*
X0262654Y0021000D01*
X0262600Y0021700D02*
X0262600Y0049600D01*
X0261700Y0050500D01*
X0261000Y0051000D01*
X0261000Y0081000D02*
X0261700Y0081100D01*
X0261700Y0125200D01*
X0261000Y0126000D01*
X0251800Y0125200D02*
X0251000Y0126000D01*
X0251800Y0125200D02*
X0251800Y0081100D01*
X0251000Y0081000D01*
X0241000Y0081000D02*
X0241000Y0126000D01*
X0271000Y0126000D02*
X0271600Y0125200D01*
X0271600Y0081100D01*
X0271000Y0081000D01*
X0336000Y0076000D02*
X0350800Y0075700D01*
X0350800Y0081100D01*
X0351000Y0081157D01*
X0380500Y0069400D02*
X0381000Y0069937D01*
X0325094Y0021000D02*
X0324700Y0020800D01*
X0269800Y0020800D01*
X0269346Y0021000D01*
X0196000Y0047800D02*
X0196000Y0099100D01*
X0166300Y0128800D01*
X0166000Y0129346D01*
X0166000Y0122654D02*
X0165400Y0122500D01*
X0128500Y0122500D01*
X0127600Y0121600D01*
X0127299Y0121000D01*
X0126700Y0121600D01*
X0121300Y0121600D01*
X0114701Y0121000D02*
X0114100Y0120700D01*
X0114100Y0054100D01*
X0096000Y0036000D01*
X0130300Y0018100D02*
X0129937Y0017260D01*
X0130300Y0018100D02*
X0148300Y0018100D01*
X0180700Y0050500D01*
X0181000Y0051000D01*
X0196000Y0047800D02*
X0166300Y0018100D01*
X0169453Y0021000D01*
X0165400Y0022600D02*
X0162700Y0019900D01*
X0162700Y0015400D01*
X0162547Y0021000D02*
X0165400Y0024400D01*
X0165400Y0022600D01*
X0181000Y0017547D02*
X0181600Y0018100D01*
X0187900Y0018100D01*
X0190600Y0020800D01*
X0191000Y0021000D01*
X0096100Y0016300D02*
X0096000Y0016000D01*
X0053800Y0059500D02*
X0046600Y0066700D01*
X0046000Y0067063D01*
D18*
X0129937Y0024740D03*
X0121669Y0021000D03*
X0129937Y0017260D03*
D19*
X0351000Y0081157D03*
X0351000Y0100843D03*
D20*
X0166000Y0122654D03*
X0166000Y0129346D03*
D21*
X0262654Y0021000D03*
X0269346Y0021000D03*
D22*
X0336000Y0056000D02*
X0351000Y0056000D01*
X0351000Y0071000D01*
X0346000Y0073500D02*
X0346000Y0056000D01*
X0343500Y0058500D02*
X0343500Y0076000D01*
X0338500Y0076000D02*
X0338500Y0061000D01*
X0348500Y0058500D02*
X0348500Y0076000D01*
X0353500Y0076000D02*
X0336000Y0076000D01*
X0341000Y0071000D02*
X0341000Y0056000D01*
X0353500Y0061000D02*
X0353500Y0076000D01*
D23*
X0336000Y0076000D03*
X0336000Y0056000D03*
D24*
X0121300Y0121600D03*
M02*
