G75*
%MOIN*%
%OFA0B0*%
%FSLAX25Y25*%
%IPPOS*%
%LPD*%
%AMOC8*
5,1,8,0,0,1.08239X$1,22.5*
%
%ADD10C,0.07099*%
%ADD11C,0.06800*%
%ADD12C,0.13800*%
%ADD13C,0.08200*%
%ADD14C,0.07400*%
%ADD15C,0.08062*%
%ADD16C,0.08246*%
D10*
X0122563Y0025022D03*
X0130437Y0025022D03*
X0130437Y0310022D03*
X0122563Y0310022D03*
D11*
X0079500Y0135022D02*
X0073500Y0135022D01*
X0073500Y0145022D02*
X0079500Y0145022D01*
X0079500Y0155022D02*
X0073500Y0155022D01*
X0168500Y0260022D02*
X0174500Y0260022D01*
X0174500Y0270022D02*
X0168500Y0270022D01*
X0168500Y0280022D02*
X0174500Y0280022D01*
D12*
X0230500Y0270022D03*
X0017500Y0145022D03*
D13*
X0111500Y0145022D03*
X0111500Y0135022D03*
X0111500Y0125022D03*
X0111500Y0115022D03*
X0111500Y0105022D03*
X0111500Y0095022D03*
X0141500Y0095022D03*
X0141500Y0105022D03*
X0141500Y0115022D03*
X0141500Y0125022D03*
X0141500Y0135022D03*
X0141500Y0145022D03*
X0141500Y0155022D03*
X0141500Y0165022D03*
X0141500Y0175022D03*
X0141500Y0185022D03*
X0141500Y0195022D03*
X0141500Y0205022D03*
X0141500Y0215022D03*
X0141500Y0225022D03*
X0111500Y0225022D03*
X0111500Y0215022D03*
X0111500Y0205022D03*
X0111500Y0195022D03*
X0111500Y0185022D03*
X0111500Y0175022D03*
X0111500Y0165022D03*
X0111500Y0155022D03*
X0171500Y0155022D03*
X0171500Y0145022D03*
X0171500Y0135022D03*
X0171500Y0125022D03*
X0171500Y0115022D03*
X0171500Y0105022D03*
X0171500Y0095022D03*
X0171500Y0085022D03*
X0171500Y0165022D03*
X0171500Y0175022D03*
D14*
X0076500Y0235180D03*
X0076500Y0254865D03*
D15*
X0171500Y0190022D03*
D16*
X0171500Y0220022D03*
M02*
