G75*
%MOIN*%
%OFA0B0*%
%FSLAX25Y25*%
%IPPOS*%
%LPD*%
%AMOC8*
5,1,8,0,0,1.08239X$1,22.5*
%
%ADD10C,0.07099*%
%ADD11C,0.06800*%
%ADD12C,0.13800*%
%ADD13C,0.08200*%
%ADD14R,0.05524X0.08674*%
%ADD15C,0.01421*%
%ADD16R,0.05524X0.06312*%
%ADD17C,0.02572*%
%ADD18R,0.13760X0.06040*%
%ADD19R,0.04343X0.03950*%
%ADD20C,0.07400*%
%ADD21C,0.04000*%
%ADD22C,0.04123*%
%ADD23R,0.04737X0.05131*%
%ADD24R,0.05131X0.04737*%
%ADD25C,0.07874*%
%ADD26C,0.04800*%
D10*
X0046000Y0067063D03*
X0046000Y0074937D03*
X0381000Y0069937D03*
X0381000Y0062063D03*
D11*
X0099000Y0036000D02*
X0093000Y0036000D01*
X0093000Y0026000D02*
X0099000Y0026000D01*
X0099000Y0016000D02*
X0093000Y0016000D01*
X0093000Y0101000D02*
X0099000Y0101000D01*
X0099000Y0111000D02*
X0093000Y0111000D01*
X0093000Y0121000D02*
X0099000Y0121000D01*
D12*
X0037000Y0026000D03*
X0037000Y0111000D03*
D13*
X0151000Y0081000D03*
X0161000Y0081000D03*
X0171000Y0081000D03*
X0181000Y0081000D03*
X0191000Y0081000D03*
X0201000Y0081000D03*
X0211000Y0081000D03*
X0221000Y0081000D03*
X0231000Y0081000D03*
X0241000Y0081000D03*
X0251000Y0081000D03*
X0261000Y0081000D03*
X0271000Y0081000D03*
X0281000Y0081000D03*
X0281000Y0051000D03*
X0271000Y0051000D03*
X0261000Y0051000D03*
X0251000Y0051000D03*
X0241000Y0051000D03*
X0231000Y0051000D03*
X0221000Y0051000D03*
X0211000Y0051000D03*
X0201000Y0051000D03*
X0191000Y0051000D03*
X0181000Y0051000D03*
X0171000Y0051000D03*
X0161000Y0051000D03*
X0151000Y0051000D03*
X0241000Y0126000D03*
X0251000Y0126000D03*
X0261000Y0126000D03*
X0271000Y0126000D03*
X0281000Y0126000D03*
X0291000Y0126000D03*
X0301000Y0126000D03*
X0311000Y0126000D03*
X0321000Y0126000D03*
X0331000Y0126000D03*
D14*
X0327299Y0111000D03*
X0314701Y0111000D03*
X0127299Y0121000D03*
X0114701Y0121000D03*
D15*
X0179342Y0022795D02*
X0182658Y0022795D01*
X0179342Y0022795D02*
X0179342Y0026111D01*
X0182658Y0026111D01*
X0182658Y0022795D01*
X0182658Y0024215D02*
X0179342Y0024215D01*
X0179342Y0025635D02*
X0182658Y0025635D01*
X0171111Y0022658D02*
X0171111Y0019342D01*
X0167795Y0019342D01*
X0167795Y0022658D01*
X0171111Y0022658D01*
X0171111Y0020762D02*
X0167795Y0020762D01*
X0167795Y0022182D02*
X0171111Y0022182D01*
X0164205Y0022658D02*
X0164205Y0019342D01*
X0160889Y0019342D01*
X0160889Y0022658D01*
X0164205Y0022658D01*
X0164205Y0020762D02*
X0160889Y0020762D01*
X0160889Y0022182D02*
X0164205Y0022182D01*
X0179342Y0015889D02*
X0182658Y0015889D01*
X0179342Y0015889D02*
X0179342Y0019205D01*
X0182658Y0019205D01*
X0182658Y0015889D01*
X0182658Y0017309D02*
X0179342Y0017309D01*
X0179342Y0018729D02*
X0182658Y0018729D01*
D16*
X0325094Y0021000D03*
X0336906Y0021000D03*
D17*
X0240724Y0018136D02*
X0240724Y0023864D01*
X0236000Y0023864D02*
X0236000Y0018136D01*
X0231276Y0018136D02*
X0231276Y0023864D01*
D18*
X0235990Y0020990D03*
D19*
X0129937Y0017260D03*
X0121669Y0021000D03*
X0129937Y0024740D03*
D20*
X0351000Y0081157D03*
X0351000Y0100843D03*
D21*
X0221000Y0021000D03*
D22*
X0191000Y0021000D03*
D23*
X0166000Y0122654D03*
X0166000Y0129346D03*
D24*
X0262654Y0021000D03*
X0269346Y0021000D03*
D25*
X0342063Y0066000D02*
X0342065Y0066125D01*
X0342071Y0066250D01*
X0342081Y0066374D01*
X0342095Y0066498D01*
X0342112Y0066622D01*
X0342134Y0066745D01*
X0342160Y0066867D01*
X0342189Y0066989D01*
X0342222Y0067109D01*
X0342260Y0067228D01*
X0342300Y0067347D01*
X0342345Y0067463D01*
X0342393Y0067578D01*
X0342445Y0067692D01*
X0342501Y0067804D01*
X0342560Y0067914D01*
X0342622Y0068022D01*
X0342688Y0068129D01*
X0342757Y0068233D01*
X0342830Y0068334D01*
X0342905Y0068434D01*
X0342984Y0068531D01*
X0343066Y0068625D01*
X0343151Y0068717D01*
X0343238Y0068806D01*
X0343329Y0068892D01*
X0343422Y0068975D01*
X0343518Y0069056D01*
X0343616Y0069133D01*
X0343716Y0069207D01*
X0343819Y0069278D01*
X0343924Y0069345D01*
X0344032Y0069410D01*
X0344141Y0069470D01*
X0344252Y0069528D01*
X0344365Y0069581D01*
X0344479Y0069631D01*
X0344595Y0069678D01*
X0344712Y0069720D01*
X0344831Y0069759D01*
X0344951Y0069795D01*
X0345072Y0069826D01*
X0345194Y0069854D01*
X0345316Y0069877D01*
X0345440Y0069897D01*
X0345564Y0069913D01*
X0345688Y0069925D01*
X0345813Y0069933D01*
X0345938Y0069937D01*
X0346062Y0069937D01*
X0346187Y0069933D01*
X0346312Y0069925D01*
X0346436Y0069913D01*
X0346560Y0069897D01*
X0346684Y0069877D01*
X0346806Y0069854D01*
X0346928Y0069826D01*
X0347049Y0069795D01*
X0347169Y0069759D01*
X0347288Y0069720D01*
X0347405Y0069678D01*
X0347521Y0069631D01*
X0347635Y0069581D01*
X0347748Y0069528D01*
X0347859Y0069470D01*
X0347969Y0069410D01*
X0348076Y0069345D01*
X0348181Y0069278D01*
X0348284Y0069207D01*
X0348384Y0069133D01*
X0348482Y0069056D01*
X0348578Y0068975D01*
X0348671Y0068892D01*
X0348762Y0068806D01*
X0348849Y0068717D01*
X0348934Y0068625D01*
X0349016Y0068531D01*
X0349095Y0068434D01*
X0349170Y0068334D01*
X0349243Y0068233D01*
X0349312Y0068129D01*
X0349378Y0068022D01*
X0349440Y0067914D01*
X0349499Y0067804D01*
X0349555Y0067692D01*
X0349607Y0067578D01*
X0349655Y0067463D01*
X0349700Y0067347D01*
X0349740Y0067228D01*
X0349778Y0067109D01*
X0349811Y0066989D01*
X0349840Y0066867D01*
X0349866Y0066745D01*
X0349888Y0066622D01*
X0349905Y0066498D01*
X0349919Y0066374D01*
X0349929Y0066250D01*
X0349935Y0066125D01*
X0349937Y0066000D01*
X0349935Y0065875D01*
X0349929Y0065750D01*
X0349919Y0065626D01*
X0349905Y0065502D01*
X0349888Y0065378D01*
X0349866Y0065255D01*
X0349840Y0065133D01*
X0349811Y0065011D01*
X0349778Y0064891D01*
X0349740Y0064772D01*
X0349700Y0064653D01*
X0349655Y0064537D01*
X0349607Y0064422D01*
X0349555Y0064308D01*
X0349499Y0064196D01*
X0349440Y0064086D01*
X0349378Y0063978D01*
X0349312Y0063871D01*
X0349243Y0063767D01*
X0349170Y0063666D01*
X0349095Y0063566D01*
X0349016Y0063469D01*
X0348934Y0063375D01*
X0348849Y0063283D01*
X0348762Y0063194D01*
X0348671Y0063108D01*
X0348578Y0063025D01*
X0348482Y0062944D01*
X0348384Y0062867D01*
X0348284Y0062793D01*
X0348181Y0062722D01*
X0348076Y0062655D01*
X0347968Y0062590D01*
X0347859Y0062530D01*
X0347748Y0062472D01*
X0347635Y0062419D01*
X0347521Y0062369D01*
X0347405Y0062322D01*
X0347288Y0062280D01*
X0347169Y0062241D01*
X0347049Y0062205D01*
X0346928Y0062174D01*
X0346806Y0062146D01*
X0346684Y0062123D01*
X0346560Y0062103D01*
X0346436Y0062087D01*
X0346312Y0062075D01*
X0346187Y0062067D01*
X0346062Y0062063D01*
X0345938Y0062063D01*
X0345813Y0062067D01*
X0345688Y0062075D01*
X0345564Y0062087D01*
X0345440Y0062103D01*
X0345316Y0062123D01*
X0345194Y0062146D01*
X0345072Y0062174D01*
X0344951Y0062205D01*
X0344831Y0062241D01*
X0344712Y0062280D01*
X0344595Y0062322D01*
X0344479Y0062369D01*
X0344365Y0062419D01*
X0344252Y0062472D01*
X0344141Y0062530D01*
X0344031Y0062590D01*
X0343924Y0062655D01*
X0343819Y0062722D01*
X0343716Y0062793D01*
X0343616Y0062867D01*
X0343518Y0062944D01*
X0343422Y0063025D01*
X0343329Y0063108D01*
X0343238Y0063194D01*
X0343151Y0063283D01*
X0343066Y0063375D01*
X0342984Y0063469D01*
X0342905Y0063566D01*
X0342830Y0063666D01*
X0342757Y0063767D01*
X0342688Y0063871D01*
X0342622Y0063978D01*
X0342560Y0064086D01*
X0342501Y0064196D01*
X0342445Y0064308D01*
X0342393Y0064422D01*
X0342345Y0064537D01*
X0342300Y0064653D01*
X0342260Y0064772D01*
X0342222Y0064891D01*
X0342189Y0065011D01*
X0342160Y0065133D01*
X0342134Y0065255D01*
X0342112Y0065378D01*
X0342095Y0065502D01*
X0342081Y0065626D01*
X0342071Y0065750D01*
X0342065Y0065875D01*
X0342063Y0066000D01*
D26*
X0121300Y0121600D03*
M02*
