G75*
%MOIN*%
%OFA0B0*%
%FSLAX25Y25*%
%IPPOS*%
%LPD*%
%AMOC8*
5,1,8,0,0,1.08239X$1,22.5*
%
%ADD10C,0.07099*%
%ADD11C,0.06800*%
%ADD12C,0.13800*%
%ADD13C,0.08200*%
%ADD14C,0.07400*%
%ADD15C,0.08062*%
%ADD16C,0.08246*%
%ADD17C,0.04800*%
D10*
X0046000Y0067063D03*
X0046000Y0074937D03*
X0381000Y0069937D03*
X0381000Y0062063D03*
D11*
X0099000Y0036000D02*
X0093000Y0036000D01*
X0093000Y0026000D02*
X0099000Y0026000D01*
X0099000Y0016000D02*
X0093000Y0016000D01*
X0093000Y0101000D02*
X0099000Y0101000D01*
X0099000Y0111000D02*
X0093000Y0111000D01*
X0093000Y0121000D02*
X0099000Y0121000D01*
D12*
X0037000Y0026000D03*
X0037000Y0111000D03*
D13*
X0151000Y0081000D03*
X0161000Y0081000D03*
X0171000Y0081000D03*
X0181000Y0081000D03*
X0191000Y0081000D03*
X0201000Y0081000D03*
X0211000Y0081000D03*
X0221000Y0081000D03*
X0231000Y0081000D03*
X0241000Y0081000D03*
X0251000Y0081000D03*
X0261000Y0081000D03*
X0271000Y0081000D03*
X0281000Y0081000D03*
X0281000Y0051000D03*
X0271000Y0051000D03*
X0261000Y0051000D03*
X0251000Y0051000D03*
X0241000Y0051000D03*
X0231000Y0051000D03*
X0221000Y0051000D03*
X0211000Y0051000D03*
X0201000Y0051000D03*
X0191000Y0051000D03*
X0181000Y0051000D03*
X0171000Y0051000D03*
X0161000Y0051000D03*
X0151000Y0051000D03*
X0241000Y0126000D03*
X0251000Y0126000D03*
X0261000Y0126000D03*
X0271000Y0126000D03*
X0281000Y0126000D03*
X0291000Y0126000D03*
X0301000Y0126000D03*
X0311000Y0126000D03*
X0321000Y0126000D03*
X0331000Y0126000D03*
D14*
X0351000Y0100843D03*
X0351000Y0081157D03*
D15*
X0221000Y0021000D03*
D16*
X0191000Y0021000D03*
D17*
X0121300Y0121600D03*
M02*
