G75*
%MOIN*%
%OFA0B0*%
%FSLAX25Y25*%
%IPPOS*%
%LPD*%
%AMOC8*
5,1,8,0,0,1.08239X$1,22.5*
%
%ADD10C,0.00800*%
%ADD11C,0.00600*%
%ADD12C,0.00200*%
%ADD13C,0.00400*%
%ADD14R,0.03500X0.05000*%
%ADD15C,0.00500*%
%ADD16R,0.03000X0.01500*%
%ADD17R,0.01500X0.03000*%
D10*
X0022378Y0059386D02*
X0022378Y0082614D01*
X0052299Y0082614D01*
X0052299Y0080055D01*
X0046000Y0080055D01*
X0046000Y0061945D02*
X0052299Y0061945D01*
X0052299Y0059386D01*
X0022378Y0059386D01*
X0123244Y0026512D02*
X0123244Y0024150D01*
X0123244Y0026512D02*
X0126394Y0026512D01*
X0123244Y0017850D02*
X0123244Y0015488D01*
X0126394Y0015488D01*
X0165331Y0019189D02*
X0165331Y0021000D01*
X0166551Y0021920D01*
X0165331Y0022811D02*
X0165331Y0021000D01*
X0165391Y0020900D02*
X0166551Y0020140D01*
X0179189Y0021669D02*
X0181000Y0021669D01*
X0181920Y0020449D01*
X0182811Y0021669D02*
X0181000Y0021669D01*
X0180900Y0021609D02*
X0180140Y0020449D01*
X0195000Y0021000D02*
X0196000Y0021000D01*
X0196000Y0024000D01*
X0216000Y0024000D01*
X0216000Y0021000D01*
X0217000Y0021000D01*
X0216000Y0021000D02*
X0216000Y0018000D01*
X0196000Y0018000D01*
X0196000Y0021000D01*
X0228603Y0018481D02*
X0228603Y0023599D01*
X0243367Y0023599D02*
X0243367Y0018481D01*
X0285000Y0054000D02*
X0286000Y0054000D01*
X0286000Y0078000D01*
X0285000Y0078000D01*
X0314701Y0105882D02*
X0327299Y0105882D01*
X0327299Y0116118D02*
X0314701Y0116118D01*
X0313500Y0121000D02*
X0308500Y0121000D01*
X0306000Y0123500D01*
X0303500Y0121000D01*
X0298500Y0121000D01*
X0296000Y0123500D01*
X0293500Y0121000D01*
X0288500Y0121000D01*
X0286000Y0123500D01*
X0283500Y0121000D01*
X0278500Y0121000D01*
X0276000Y0123500D01*
X0273500Y0121000D01*
X0268500Y0121000D01*
X0266000Y0123500D01*
X0263500Y0121000D01*
X0258500Y0121000D01*
X0256000Y0123500D01*
X0253500Y0121000D01*
X0248500Y0121000D01*
X0246000Y0123500D01*
X0243500Y0121000D01*
X0238500Y0121000D01*
X0236000Y0123500D01*
X0236000Y0128500D01*
X0238500Y0131000D01*
X0243500Y0131000D01*
X0246000Y0128500D01*
X0248500Y0131000D01*
X0253500Y0131000D01*
X0256000Y0128500D01*
X0258500Y0131000D01*
X0263500Y0131000D01*
X0266000Y0128500D01*
X0268500Y0131000D01*
X0273500Y0131000D01*
X0276000Y0128500D01*
X0278500Y0131000D01*
X0283500Y0131000D01*
X0286000Y0128500D01*
X0288500Y0131000D01*
X0293500Y0131000D01*
X0296000Y0128500D01*
X0298500Y0131000D01*
X0303500Y0131000D01*
X0306000Y0128500D01*
X0308500Y0131000D01*
X0313500Y0131000D01*
X0316000Y0128500D01*
X0318500Y0131000D01*
X0323500Y0131000D01*
X0326000Y0128500D01*
X0328500Y0131000D01*
X0333500Y0131000D01*
X0336000Y0128500D01*
X0336000Y0123500D01*
X0333500Y0121000D01*
X0328500Y0121000D01*
X0326000Y0123500D01*
X0323500Y0121000D01*
X0318500Y0121000D01*
X0316000Y0123500D01*
X0313500Y0121000D01*
X0347654Y0097102D02*
X0347654Y0084898D01*
X0354346Y0084898D01*
X0354346Y0097102D01*
X0347654Y0097102D01*
X0374701Y0077614D02*
X0374701Y0075055D01*
X0381000Y0075055D01*
X0374701Y0077614D02*
X0404622Y0077614D01*
X0404622Y0054386D01*
X0374701Y0054386D01*
X0374701Y0056945D01*
X0381000Y0056945D01*
X0340449Y0024937D02*
X0334937Y0024937D01*
X0332181Y0023756D02*
X0332181Y0021000D01*
X0329819Y0018638D01*
X0329819Y0023362D01*
X0332181Y0021000D01*
X0332181Y0018244D01*
X0334937Y0017063D02*
X0340449Y0017063D01*
X0340449Y0024937D01*
X0327063Y0024937D02*
X0321551Y0024937D01*
X0321551Y0017063D01*
X0327063Y0017063D01*
X0147000Y0054000D02*
X0146000Y0054000D01*
X0146000Y0061000D01*
X0146140Y0061002D01*
X0146280Y0061008D01*
X0146420Y0061018D01*
X0146560Y0061031D01*
X0146699Y0061049D01*
X0146838Y0061071D01*
X0146975Y0061096D01*
X0147113Y0061125D01*
X0147249Y0061158D01*
X0147384Y0061195D01*
X0147518Y0061236D01*
X0147651Y0061281D01*
X0147783Y0061329D01*
X0147913Y0061381D01*
X0148042Y0061436D01*
X0148169Y0061495D01*
X0148295Y0061558D01*
X0148419Y0061624D01*
X0148540Y0061693D01*
X0148660Y0061766D01*
X0148778Y0061843D01*
X0148893Y0061922D01*
X0149007Y0062005D01*
X0149117Y0062091D01*
X0149226Y0062180D01*
X0149332Y0062272D01*
X0149435Y0062367D01*
X0149536Y0062464D01*
X0149633Y0062565D01*
X0149728Y0062668D01*
X0149820Y0062774D01*
X0149909Y0062883D01*
X0149995Y0062993D01*
X0150078Y0063107D01*
X0150157Y0063222D01*
X0150234Y0063340D01*
X0150307Y0063460D01*
X0150376Y0063581D01*
X0150442Y0063705D01*
X0150505Y0063831D01*
X0150564Y0063958D01*
X0150619Y0064087D01*
X0150671Y0064217D01*
X0150719Y0064349D01*
X0150764Y0064482D01*
X0150805Y0064616D01*
X0150842Y0064751D01*
X0150875Y0064887D01*
X0150904Y0065025D01*
X0150929Y0065162D01*
X0150951Y0065301D01*
X0150969Y0065440D01*
X0150982Y0065580D01*
X0150992Y0065720D01*
X0150998Y0065860D01*
X0151000Y0066000D01*
X0150998Y0066140D01*
X0150992Y0066280D01*
X0150982Y0066420D01*
X0150969Y0066560D01*
X0150951Y0066699D01*
X0150929Y0066838D01*
X0150904Y0066975D01*
X0150875Y0067113D01*
X0150842Y0067249D01*
X0150805Y0067384D01*
X0150764Y0067518D01*
X0150719Y0067651D01*
X0150671Y0067783D01*
X0150619Y0067913D01*
X0150564Y0068042D01*
X0150505Y0068169D01*
X0150442Y0068295D01*
X0150376Y0068419D01*
X0150307Y0068540D01*
X0150234Y0068660D01*
X0150157Y0068778D01*
X0150078Y0068893D01*
X0149995Y0069007D01*
X0149909Y0069117D01*
X0149820Y0069226D01*
X0149728Y0069332D01*
X0149633Y0069435D01*
X0149536Y0069536D01*
X0149435Y0069633D01*
X0149332Y0069728D01*
X0149226Y0069820D01*
X0149117Y0069909D01*
X0149007Y0069995D01*
X0148893Y0070078D01*
X0148778Y0070157D01*
X0148660Y0070234D01*
X0148540Y0070307D01*
X0148419Y0070376D01*
X0148295Y0070442D01*
X0148169Y0070505D01*
X0148042Y0070564D01*
X0147913Y0070619D01*
X0147783Y0070671D01*
X0147651Y0070719D01*
X0147518Y0070764D01*
X0147384Y0070805D01*
X0147249Y0070842D01*
X0147113Y0070875D01*
X0146975Y0070904D01*
X0146838Y0070929D01*
X0146699Y0070951D01*
X0146560Y0070969D01*
X0146420Y0070982D01*
X0146280Y0070992D01*
X0146140Y0070998D01*
X0146000Y0071000D01*
X0146000Y0078000D01*
X0147000Y0078000D01*
X0127299Y0115882D02*
X0114701Y0115882D01*
X0114701Y0126118D02*
X0127299Y0126118D01*
D11*
X0031000Y0005500D02*
X0023500Y0005500D01*
X0023500Y0046500D01*
X0031000Y0046500D01*
X0031000Y0043000D01*
X0037000Y0043000D01*
X0037000Y0046500D01*
X0086000Y0046500D01*
X0086000Y0005500D01*
X0037000Y0005500D01*
X0037000Y0009000D01*
X0031000Y0009000D01*
X0031000Y0005500D01*
X0029900Y0026000D02*
X0029902Y0026174D01*
X0029909Y0026348D01*
X0029919Y0026522D01*
X0029934Y0026696D01*
X0029953Y0026869D01*
X0029977Y0027042D01*
X0030005Y0027214D01*
X0030036Y0027385D01*
X0030073Y0027556D01*
X0030113Y0027725D01*
X0030157Y0027894D01*
X0030206Y0028061D01*
X0030258Y0028227D01*
X0030315Y0028392D01*
X0030376Y0028555D01*
X0030440Y0028717D01*
X0030509Y0028877D01*
X0030582Y0029036D01*
X0030658Y0029192D01*
X0030738Y0029347D01*
X0030822Y0029500D01*
X0030910Y0029650D01*
X0031002Y0029798D01*
X0031097Y0029945D01*
X0031195Y0030088D01*
X0031297Y0030229D01*
X0031403Y0030368D01*
X0031512Y0030504D01*
X0031624Y0030638D01*
X0031739Y0030768D01*
X0031858Y0030896D01*
X0031980Y0031020D01*
X0032104Y0031142D01*
X0032232Y0031261D01*
X0032362Y0031376D01*
X0032496Y0031488D01*
X0032632Y0031597D01*
X0032771Y0031703D01*
X0032912Y0031805D01*
X0033055Y0031903D01*
X0033202Y0031998D01*
X0033350Y0032090D01*
X0033500Y0032178D01*
X0033653Y0032262D01*
X0033808Y0032342D01*
X0033964Y0032418D01*
X0034123Y0032491D01*
X0034283Y0032560D01*
X0034445Y0032624D01*
X0034608Y0032685D01*
X0034773Y0032742D01*
X0034939Y0032794D01*
X0035106Y0032843D01*
X0035275Y0032887D01*
X0035444Y0032927D01*
X0035615Y0032964D01*
X0035786Y0032995D01*
X0035958Y0033023D01*
X0036131Y0033047D01*
X0036304Y0033066D01*
X0036478Y0033081D01*
X0036652Y0033091D01*
X0036826Y0033098D01*
X0037000Y0033100D01*
X0037174Y0033098D01*
X0037348Y0033091D01*
X0037522Y0033081D01*
X0037696Y0033066D01*
X0037869Y0033047D01*
X0038042Y0033023D01*
X0038214Y0032995D01*
X0038385Y0032964D01*
X0038556Y0032927D01*
X0038725Y0032887D01*
X0038894Y0032843D01*
X0039061Y0032794D01*
X0039227Y0032742D01*
X0039392Y0032685D01*
X0039555Y0032624D01*
X0039717Y0032560D01*
X0039877Y0032491D01*
X0040036Y0032418D01*
X0040192Y0032342D01*
X0040347Y0032262D01*
X0040500Y0032178D01*
X0040650Y0032090D01*
X0040798Y0031998D01*
X0040945Y0031903D01*
X0041088Y0031805D01*
X0041229Y0031703D01*
X0041368Y0031597D01*
X0041504Y0031488D01*
X0041638Y0031376D01*
X0041768Y0031261D01*
X0041896Y0031142D01*
X0042020Y0031020D01*
X0042142Y0030896D01*
X0042261Y0030768D01*
X0042376Y0030638D01*
X0042488Y0030504D01*
X0042597Y0030368D01*
X0042703Y0030229D01*
X0042805Y0030088D01*
X0042903Y0029945D01*
X0042998Y0029798D01*
X0043090Y0029650D01*
X0043178Y0029500D01*
X0043262Y0029347D01*
X0043342Y0029192D01*
X0043418Y0029036D01*
X0043491Y0028877D01*
X0043560Y0028717D01*
X0043624Y0028555D01*
X0043685Y0028392D01*
X0043742Y0028227D01*
X0043794Y0028061D01*
X0043843Y0027894D01*
X0043887Y0027725D01*
X0043927Y0027556D01*
X0043964Y0027385D01*
X0043995Y0027214D01*
X0044023Y0027042D01*
X0044047Y0026869D01*
X0044066Y0026696D01*
X0044081Y0026522D01*
X0044091Y0026348D01*
X0044098Y0026174D01*
X0044100Y0026000D01*
X0044098Y0025826D01*
X0044091Y0025652D01*
X0044081Y0025478D01*
X0044066Y0025304D01*
X0044047Y0025131D01*
X0044023Y0024958D01*
X0043995Y0024786D01*
X0043964Y0024615D01*
X0043927Y0024444D01*
X0043887Y0024275D01*
X0043843Y0024106D01*
X0043794Y0023939D01*
X0043742Y0023773D01*
X0043685Y0023608D01*
X0043624Y0023445D01*
X0043560Y0023283D01*
X0043491Y0023123D01*
X0043418Y0022964D01*
X0043342Y0022808D01*
X0043262Y0022653D01*
X0043178Y0022500D01*
X0043090Y0022350D01*
X0042998Y0022202D01*
X0042903Y0022055D01*
X0042805Y0021912D01*
X0042703Y0021771D01*
X0042597Y0021632D01*
X0042488Y0021496D01*
X0042376Y0021362D01*
X0042261Y0021232D01*
X0042142Y0021104D01*
X0042020Y0020980D01*
X0041896Y0020858D01*
X0041768Y0020739D01*
X0041638Y0020624D01*
X0041504Y0020512D01*
X0041368Y0020403D01*
X0041229Y0020297D01*
X0041088Y0020195D01*
X0040945Y0020097D01*
X0040798Y0020002D01*
X0040650Y0019910D01*
X0040500Y0019822D01*
X0040347Y0019738D01*
X0040192Y0019658D01*
X0040036Y0019582D01*
X0039877Y0019509D01*
X0039717Y0019440D01*
X0039555Y0019376D01*
X0039392Y0019315D01*
X0039227Y0019258D01*
X0039061Y0019206D01*
X0038894Y0019157D01*
X0038725Y0019113D01*
X0038556Y0019073D01*
X0038385Y0019036D01*
X0038214Y0019005D01*
X0038042Y0018977D01*
X0037869Y0018953D01*
X0037696Y0018934D01*
X0037522Y0018919D01*
X0037348Y0018909D01*
X0037174Y0018902D01*
X0037000Y0018900D01*
X0036826Y0018902D01*
X0036652Y0018909D01*
X0036478Y0018919D01*
X0036304Y0018934D01*
X0036131Y0018953D01*
X0035958Y0018977D01*
X0035786Y0019005D01*
X0035615Y0019036D01*
X0035444Y0019073D01*
X0035275Y0019113D01*
X0035106Y0019157D01*
X0034939Y0019206D01*
X0034773Y0019258D01*
X0034608Y0019315D01*
X0034445Y0019376D01*
X0034283Y0019440D01*
X0034123Y0019509D01*
X0033964Y0019582D01*
X0033808Y0019658D01*
X0033653Y0019738D01*
X0033500Y0019822D01*
X0033350Y0019910D01*
X0033202Y0020002D01*
X0033055Y0020097D01*
X0032912Y0020195D01*
X0032771Y0020297D01*
X0032632Y0020403D01*
X0032496Y0020512D01*
X0032362Y0020624D01*
X0032232Y0020739D01*
X0032104Y0020858D01*
X0031980Y0020980D01*
X0031858Y0021104D01*
X0031739Y0021232D01*
X0031624Y0021362D01*
X0031512Y0021496D01*
X0031403Y0021632D01*
X0031297Y0021771D01*
X0031195Y0021912D01*
X0031097Y0022055D01*
X0031002Y0022202D01*
X0030910Y0022350D01*
X0030822Y0022500D01*
X0030738Y0022653D01*
X0030658Y0022808D01*
X0030582Y0022964D01*
X0030509Y0023123D01*
X0030440Y0023283D01*
X0030376Y0023445D01*
X0030315Y0023608D01*
X0030258Y0023773D01*
X0030206Y0023939D01*
X0030157Y0024106D01*
X0030113Y0024275D01*
X0030073Y0024444D01*
X0030036Y0024615D01*
X0030005Y0024786D01*
X0029977Y0024958D01*
X0029953Y0025131D01*
X0029934Y0025304D01*
X0029919Y0025478D01*
X0029909Y0025652D01*
X0029902Y0025826D01*
X0029900Y0026000D01*
X0031000Y0090500D02*
X0023500Y0090500D01*
X0023500Y0131500D01*
X0031000Y0131500D01*
X0031000Y0128000D01*
X0037000Y0128000D01*
X0037000Y0131500D01*
X0086000Y0131500D01*
X0086000Y0090500D01*
X0037000Y0090500D01*
X0037000Y0094000D01*
X0031000Y0094000D01*
X0031000Y0090500D01*
X0029900Y0111000D02*
X0029902Y0111174D01*
X0029909Y0111348D01*
X0029919Y0111522D01*
X0029934Y0111696D01*
X0029953Y0111869D01*
X0029977Y0112042D01*
X0030005Y0112214D01*
X0030036Y0112385D01*
X0030073Y0112556D01*
X0030113Y0112725D01*
X0030157Y0112894D01*
X0030206Y0113061D01*
X0030258Y0113227D01*
X0030315Y0113392D01*
X0030376Y0113555D01*
X0030440Y0113717D01*
X0030509Y0113877D01*
X0030582Y0114036D01*
X0030658Y0114192D01*
X0030738Y0114347D01*
X0030822Y0114500D01*
X0030910Y0114650D01*
X0031002Y0114798D01*
X0031097Y0114945D01*
X0031195Y0115088D01*
X0031297Y0115229D01*
X0031403Y0115368D01*
X0031512Y0115504D01*
X0031624Y0115638D01*
X0031739Y0115768D01*
X0031858Y0115896D01*
X0031980Y0116020D01*
X0032104Y0116142D01*
X0032232Y0116261D01*
X0032362Y0116376D01*
X0032496Y0116488D01*
X0032632Y0116597D01*
X0032771Y0116703D01*
X0032912Y0116805D01*
X0033055Y0116903D01*
X0033202Y0116998D01*
X0033350Y0117090D01*
X0033500Y0117178D01*
X0033653Y0117262D01*
X0033808Y0117342D01*
X0033964Y0117418D01*
X0034123Y0117491D01*
X0034283Y0117560D01*
X0034445Y0117624D01*
X0034608Y0117685D01*
X0034773Y0117742D01*
X0034939Y0117794D01*
X0035106Y0117843D01*
X0035275Y0117887D01*
X0035444Y0117927D01*
X0035615Y0117964D01*
X0035786Y0117995D01*
X0035958Y0118023D01*
X0036131Y0118047D01*
X0036304Y0118066D01*
X0036478Y0118081D01*
X0036652Y0118091D01*
X0036826Y0118098D01*
X0037000Y0118100D01*
X0037174Y0118098D01*
X0037348Y0118091D01*
X0037522Y0118081D01*
X0037696Y0118066D01*
X0037869Y0118047D01*
X0038042Y0118023D01*
X0038214Y0117995D01*
X0038385Y0117964D01*
X0038556Y0117927D01*
X0038725Y0117887D01*
X0038894Y0117843D01*
X0039061Y0117794D01*
X0039227Y0117742D01*
X0039392Y0117685D01*
X0039555Y0117624D01*
X0039717Y0117560D01*
X0039877Y0117491D01*
X0040036Y0117418D01*
X0040192Y0117342D01*
X0040347Y0117262D01*
X0040500Y0117178D01*
X0040650Y0117090D01*
X0040798Y0116998D01*
X0040945Y0116903D01*
X0041088Y0116805D01*
X0041229Y0116703D01*
X0041368Y0116597D01*
X0041504Y0116488D01*
X0041638Y0116376D01*
X0041768Y0116261D01*
X0041896Y0116142D01*
X0042020Y0116020D01*
X0042142Y0115896D01*
X0042261Y0115768D01*
X0042376Y0115638D01*
X0042488Y0115504D01*
X0042597Y0115368D01*
X0042703Y0115229D01*
X0042805Y0115088D01*
X0042903Y0114945D01*
X0042998Y0114798D01*
X0043090Y0114650D01*
X0043178Y0114500D01*
X0043262Y0114347D01*
X0043342Y0114192D01*
X0043418Y0114036D01*
X0043491Y0113877D01*
X0043560Y0113717D01*
X0043624Y0113555D01*
X0043685Y0113392D01*
X0043742Y0113227D01*
X0043794Y0113061D01*
X0043843Y0112894D01*
X0043887Y0112725D01*
X0043927Y0112556D01*
X0043964Y0112385D01*
X0043995Y0112214D01*
X0044023Y0112042D01*
X0044047Y0111869D01*
X0044066Y0111696D01*
X0044081Y0111522D01*
X0044091Y0111348D01*
X0044098Y0111174D01*
X0044100Y0111000D01*
X0044098Y0110826D01*
X0044091Y0110652D01*
X0044081Y0110478D01*
X0044066Y0110304D01*
X0044047Y0110131D01*
X0044023Y0109958D01*
X0043995Y0109786D01*
X0043964Y0109615D01*
X0043927Y0109444D01*
X0043887Y0109275D01*
X0043843Y0109106D01*
X0043794Y0108939D01*
X0043742Y0108773D01*
X0043685Y0108608D01*
X0043624Y0108445D01*
X0043560Y0108283D01*
X0043491Y0108123D01*
X0043418Y0107964D01*
X0043342Y0107808D01*
X0043262Y0107653D01*
X0043178Y0107500D01*
X0043090Y0107350D01*
X0042998Y0107202D01*
X0042903Y0107055D01*
X0042805Y0106912D01*
X0042703Y0106771D01*
X0042597Y0106632D01*
X0042488Y0106496D01*
X0042376Y0106362D01*
X0042261Y0106232D01*
X0042142Y0106104D01*
X0042020Y0105980D01*
X0041896Y0105858D01*
X0041768Y0105739D01*
X0041638Y0105624D01*
X0041504Y0105512D01*
X0041368Y0105403D01*
X0041229Y0105297D01*
X0041088Y0105195D01*
X0040945Y0105097D01*
X0040798Y0105002D01*
X0040650Y0104910D01*
X0040500Y0104822D01*
X0040347Y0104738D01*
X0040192Y0104658D01*
X0040036Y0104582D01*
X0039877Y0104509D01*
X0039717Y0104440D01*
X0039555Y0104376D01*
X0039392Y0104315D01*
X0039227Y0104258D01*
X0039061Y0104206D01*
X0038894Y0104157D01*
X0038725Y0104113D01*
X0038556Y0104073D01*
X0038385Y0104036D01*
X0038214Y0104005D01*
X0038042Y0103977D01*
X0037869Y0103953D01*
X0037696Y0103934D01*
X0037522Y0103919D01*
X0037348Y0103909D01*
X0037174Y0103902D01*
X0037000Y0103900D01*
X0036826Y0103902D01*
X0036652Y0103909D01*
X0036478Y0103919D01*
X0036304Y0103934D01*
X0036131Y0103953D01*
X0035958Y0103977D01*
X0035786Y0104005D01*
X0035615Y0104036D01*
X0035444Y0104073D01*
X0035275Y0104113D01*
X0035106Y0104157D01*
X0034939Y0104206D01*
X0034773Y0104258D01*
X0034608Y0104315D01*
X0034445Y0104376D01*
X0034283Y0104440D01*
X0034123Y0104509D01*
X0033964Y0104582D01*
X0033808Y0104658D01*
X0033653Y0104738D01*
X0033500Y0104822D01*
X0033350Y0104910D01*
X0033202Y0105002D01*
X0033055Y0105097D01*
X0032912Y0105195D01*
X0032771Y0105297D01*
X0032632Y0105403D01*
X0032496Y0105512D01*
X0032362Y0105624D01*
X0032232Y0105739D01*
X0032104Y0105858D01*
X0031980Y0105980D01*
X0031858Y0106104D01*
X0031739Y0106232D01*
X0031624Y0106362D01*
X0031512Y0106496D01*
X0031403Y0106632D01*
X0031297Y0106771D01*
X0031195Y0106912D01*
X0031097Y0107055D01*
X0031002Y0107202D01*
X0030910Y0107350D01*
X0030822Y0107500D01*
X0030738Y0107653D01*
X0030658Y0107808D01*
X0030582Y0107964D01*
X0030509Y0108123D01*
X0030440Y0108283D01*
X0030376Y0108445D01*
X0030315Y0108608D01*
X0030258Y0108773D01*
X0030206Y0108939D01*
X0030157Y0109106D01*
X0030113Y0109275D01*
X0030073Y0109444D01*
X0030036Y0109615D01*
X0030005Y0109786D01*
X0029977Y0109958D01*
X0029953Y0110131D01*
X0029934Y0110304D01*
X0029919Y0110478D01*
X0029909Y0110652D01*
X0029902Y0110826D01*
X0029900Y0111000D01*
X0203251Y0021636D02*
X0203818Y0022203D01*
X0204952Y0022203D01*
X0205519Y0021636D01*
X0205519Y0021069D01*
X0203251Y0018800D01*
X0205519Y0018800D01*
X0206934Y0018800D02*
X0209202Y0021069D01*
X0209202Y0021636D01*
X0208635Y0022203D01*
X0207501Y0022203D01*
X0206934Y0021636D01*
X0210617Y0021636D02*
X0211184Y0022203D01*
X0212318Y0022203D01*
X0212885Y0021636D01*
X0210617Y0019367D01*
X0211184Y0018800D01*
X0212318Y0018800D01*
X0212885Y0019367D01*
X0212885Y0021636D01*
X0210617Y0021636D02*
X0210617Y0019367D01*
X0209202Y0018800D02*
X0206934Y0018800D01*
D12*
X0083500Y0008000D02*
X0051000Y0008000D01*
X0051000Y0044000D01*
X0083500Y0044000D01*
X0083500Y0008000D01*
X0083500Y0093000D02*
X0051000Y0093000D01*
X0051000Y0129000D01*
X0083500Y0129000D01*
X0083500Y0093000D01*
D13*
X0049800Y0093700D02*
X0047465Y0093700D01*
X0046297Y0094868D01*
X0047465Y0096035D01*
X0049800Y0096035D01*
X0049800Y0097291D02*
X0049800Y0099626D01*
X0049800Y0098459D02*
X0046297Y0098459D01*
X0047465Y0097291D01*
X0048049Y0096035D02*
X0048049Y0093700D01*
X0048049Y0100882D02*
X0047465Y0102050D01*
X0047465Y0102634D01*
X0048049Y0103217D01*
X0049216Y0103217D01*
X0049800Y0102634D01*
X0049800Y0101466D01*
X0049216Y0100882D01*
X0048049Y0100882D02*
X0046297Y0100882D01*
X0046297Y0103217D01*
X0049216Y0105057D02*
X0049800Y0105057D01*
X0049800Y0105641D01*
X0049216Y0105641D01*
X0049216Y0105057D01*
X0049800Y0105641D02*
X0050968Y0104473D01*
X0049800Y0106867D02*
X0047465Y0109203D01*
X0046881Y0109203D01*
X0046297Y0108619D01*
X0046297Y0107451D01*
X0046881Y0106867D01*
X0049800Y0106867D02*
X0049800Y0109203D01*
X0049800Y0110458D02*
X0047465Y0110458D01*
X0047465Y0111042D01*
X0048049Y0111626D01*
X0047465Y0112210D01*
X0048049Y0112794D01*
X0049800Y0112794D01*
X0049800Y0111626D02*
X0048049Y0111626D01*
X0047465Y0114049D02*
X0047465Y0114633D01*
X0048049Y0115217D01*
X0047465Y0115801D01*
X0048049Y0116385D01*
X0049800Y0116385D01*
X0049800Y0115217D02*
X0048049Y0115217D01*
X0047465Y0114049D02*
X0049800Y0114049D01*
D14*
X0087750Y0111000D03*
X0087750Y0101000D03*
X0087750Y0121000D03*
X0087750Y0036000D03*
X0087750Y0026000D03*
X0087750Y0016000D03*
D15*
X0349735Y0086548D02*
X0350636Y0085648D01*
X0349735Y0086548D02*
X0352437Y0086548D01*
X0352437Y0085648D02*
X0352437Y0087449D01*
X0352437Y0088594D02*
X0349735Y0088594D01*
X0350636Y0089495D01*
X0349735Y0090396D01*
X0352437Y0090396D01*
X0351987Y0091541D02*
X0352437Y0091991D01*
X0352437Y0092892D01*
X0351987Y0093342D01*
X0350185Y0093342D01*
X0349735Y0092892D01*
X0349735Y0091991D01*
X0350185Y0091541D01*
X0351987Y0091541D01*
X0352437Y0094487D02*
X0349735Y0094487D01*
X0351086Y0094487D02*
X0351086Y0096289D01*
X0349735Y0096289D02*
X0352437Y0096289D01*
X0352437Y0097434D02*
X0349735Y0097434D01*
X0350636Y0098334D01*
X0349735Y0099235D01*
X0352437Y0099235D01*
D16*
X0166000Y0126000D03*
D17*
X0266000Y0021000D03*
M02*
