G75*
%MOIN*%
%OFA0B0*%
%FSLAX25Y25*%
%IPPOS*%
%LPD*%
%AMOC8*
5,1,8,0,0,1.08239X$1,22.5*
%
%ADD10C,0.00000*%
%ADD11C,0.00100*%
%ADD12C,0.00800*%
%ADD13C,0.00600*%
%ADD14C,0.00200*%
%ADD15C,0.00700*%
%ADD16C,0.00400*%
%ADD17R,0.03500X0.05000*%
%ADD18C,0.00500*%
%ADD19R,0.03000X0.01500*%
D10*
X0051500Y0010022D02*
X0051500Y0319983D01*
X0215201Y0319983D01*
X0215201Y0010022D01*
X0051500Y0010022D01*
X0011000Y0145022D02*
X0011002Y0145183D01*
X0011008Y0145343D01*
X0011018Y0145504D01*
X0011032Y0145664D01*
X0011050Y0145824D01*
X0011071Y0145983D01*
X0011097Y0146142D01*
X0011127Y0146300D01*
X0011160Y0146457D01*
X0011198Y0146614D01*
X0011239Y0146769D01*
X0011284Y0146923D01*
X0011333Y0147076D01*
X0011386Y0147228D01*
X0011442Y0147379D01*
X0011503Y0147528D01*
X0011566Y0147676D01*
X0011634Y0147822D01*
X0011705Y0147966D01*
X0011779Y0148108D01*
X0011857Y0148249D01*
X0011939Y0148387D01*
X0012024Y0148524D01*
X0012112Y0148658D01*
X0012204Y0148790D01*
X0012299Y0148920D01*
X0012397Y0149048D01*
X0012498Y0149173D01*
X0012602Y0149295D01*
X0012709Y0149415D01*
X0012819Y0149532D01*
X0012932Y0149647D01*
X0013048Y0149758D01*
X0013167Y0149867D01*
X0013288Y0149972D01*
X0013412Y0150075D01*
X0013538Y0150175D01*
X0013666Y0150271D01*
X0013797Y0150364D01*
X0013931Y0150454D01*
X0014066Y0150541D01*
X0014204Y0150624D01*
X0014343Y0150704D01*
X0014485Y0150780D01*
X0014628Y0150853D01*
X0014773Y0150922D01*
X0014920Y0150988D01*
X0015068Y0151050D01*
X0015218Y0151108D01*
X0015369Y0151163D01*
X0015522Y0151214D01*
X0015676Y0151261D01*
X0015831Y0151304D01*
X0015987Y0151343D01*
X0016143Y0151379D01*
X0016301Y0151410D01*
X0016459Y0151438D01*
X0016618Y0151462D01*
X0016778Y0151482D01*
X0016938Y0151498D01*
X0017098Y0151510D01*
X0017259Y0151518D01*
X0017420Y0151522D01*
X0017580Y0151522D01*
X0017741Y0151518D01*
X0017902Y0151510D01*
X0018062Y0151498D01*
X0018222Y0151482D01*
X0018382Y0151462D01*
X0018541Y0151438D01*
X0018699Y0151410D01*
X0018857Y0151379D01*
X0019013Y0151343D01*
X0019169Y0151304D01*
X0019324Y0151261D01*
X0019478Y0151214D01*
X0019631Y0151163D01*
X0019782Y0151108D01*
X0019932Y0151050D01*
X0020080Y0150988D01*
X0020227Y0150922D01*
X0020372Y0150853D01*
X0020515Y0150780D01*
X0020657Y0150704D01*
X0020796Y0150624D01*
X0020934Y0150541D01*
X0021069Y0150454D01*
X0021203Y0150364D01*
X0021334Y0150271D01*
X0021462Y0150175D01*
X0021588Y0150075D01*
X0021712Y0149972D01*
X0021833Y0149867D01*
X0021952Y0149758D01*
X0022068Y0149647D01*
X0022181Y0149532D01*
X0022291Y0149415D01*
X0022398Y0149295D01*
X0022502Y0149173D01*
X0022603Y0149048D01*
X0022701Y0148920D01*
X0022796Y0148790D01*
X0022888Y0148658D01*
X0022976Y0148524D01*
X0023061Y0148387D01*
X0023143Y0148249D01*
X0023221Y0148108D01*
X0023295Y0147966D01*
X0023366Y0147822D01*
X0023434Y0147676D01*
X0023497Y0147528D01*
X0023558Y0147379D01*
X0023614Y0147228D01*
X0023667Y0147076D01*
X0023716Y0146923D01*
X0023761Y0146769D01*
X0023802Y0146614D01*
X0023840Y0146457D01*
X0023873Y0146300D01*
X0023903Y0146142D01*
X0023929Y0145983D01*
X0023950Y0145824D01*
X0023968Y0145664D01*
X0023982Y0145504D01*
X0023992Y0145343D01*
X0023998Y0145183D01*
X0024000Y0145022D01*
X0023998Y0144861D01*
X0023992Y0144701D01*
X0023982Y0144540D01*
X0023968Y0144380D01*
X0023950Y0144220D01*
X0023929Y0144061D01*
X0023903Y0143902D01*
X0023873Y0143744D01*
X0023840Y0143587D01*
X0023802Y0143430D01*
X0023761Y0143275D01*
X0023716Y0143121D01*
X0023667Y0142968D01*
X0023614Y0142816D01*
X0023558Y0142665D01*
X0023497Y0142516D01*
X0023434Y0142368D01*
X0023366Y0142222D01*
X0023295Y0142078D01*
X0023221Y0141936D01*
X0023143Y0141795D01*
X0023061Y0141657D01*
X0022976Y0141520D01*
X0022888Y0141386D01*
X0022796Y0141254D01*
X0022701Y0141124D01*
X0022603Y0140996D01*
X0022502Y0140871D01*
X0022398Y0140749D01*
X0022291Y0140629D01*
X0022181Y0140512D01*
X0022068Y0140397D01*
X0021952Y0140286D01*
X0021833Y0140177D01*
X0021712Y0140072D01*
X0021588Y0139969D01*
X0021462Y0139869D01*
X0021334Y0139773D01*
X0021203Y0139680D01*
X0021069Y0139590D01*
X0020934Y0139503D01*
X0020796Y0139420D01*
X0020657Y0139340D01*
X0020515Y0139264D01*
X0020372Y0139191D01*
X0020227Y0139122D01*
X0020080Y0139056D01*
X0019932Y0138994D01*
X0019782Y0138936D01*
X0019631Y0138881D01*
X0019478Y0138830D01*
X0019324Y0138783D01*
X0019169Y0138740D01*
X0019013Y0138701D01*
X0018857Y0138665D01*
X0018699Y0138634D01*
X0018541Y0138606D01*
X0018382Y0138582D01*
X0018222Y0138562D01*
X0018062Y0138546D01*
X0017902Y0138534D01*
X0017741Y0138526D01*
X0017580Y0138522D01*
X0017420Y0138522D01*
X0017259Y0138526D01*
X0017098Y0138534D01*
X0016938Y0138546D01*
X0016778Y0138562D01*
X0016618Y0138582D01*
X0016459Y0138606D01*
X0016301Y0138634D01*
X0016143Y0138665D01*
X0015987Y0138701D01*
X0015831Y0138740D01*
X0015676Y0138783D01*
X0015522Y0138830D01*
X0015369Y0138881D01*
X0015218Y0138936D01*
X0015068Y0138994D01*
X0014920Y0139056D01*
X0014773Y0139122D01*
X0014628Y0139191D01*
X0014485Y0139264D01*
X0014343Y0139340D01*
X0014204Y0139420D01*
X0014066Y0139503D01*
X0013931Y0139590D01*
X0013797Y0139680D01*
X0013666Y0139773D01*
X0013538Y0139869D01*
X0013412Y0139969D01*
X0013288Y0140072D01*
X0013167Y0140177D01*
X0013048Y0140286D01*
X0012932Y0140397D01*
X0012819Y0140512D01*
X0012709Y0140629D01*
X0012602Y0140749D01*
X0012498Y0140871D01*
X0012397Y0140996D01*
X0012299Y0141124D01*
X0012204Y0141254D01*
X0012112Y0141386D01*
X0012024Y0141520D01*
X0011939Y0141657D01*
X0011857Y0141795D01*
X0011779Y0141936D01*
X0011705Y0142078D01*
X0011634Y0142222D01*
X0011566Y0142368D01*
X0011503Y0142516D01*
X0011442Y0142665D01*
X0011386Y0142816D01*
X0011333Y0142968D01*
X0011284Y0143121D01*
X0011239Y0143275D01*
X0011198Y0143430D01*
X0011160Y0143587D01*
X0011127Y0143744D01*
X0011097Y0143902D01*
X0011071Y0144061D01*
X0011050Y0144220D01*
X0011032Y0144380D01*
X0011018Y0144540D01*
X0011008Y0144701D01*
X0011002Y0144861D01*
X0011000Y0145022D01*
X0224000Y0270022D02*
X0224002Y0270183D01*
X0224008Y0270343D01*
X0224018Y0270504D01*
X0224032Y0270664D01*
X0224050Y0270824D01*
X0224071Y0270983D01*
X0224097Y0271142D01*
X0224127Y0271300D01*
X0224160Y0271457D01*
X0224198Y0271614D01*
X0224239Y0271769D01*
X0224284Y0271923D01*
X0224333Y0272076D01*
X0224386Y0272228D01*
X0224442Y0272379D01*
X0224503Y0272528D01*
X0224566Y0272676D01*
X0224634Y0272822D01*
X0224705Y0272966D01*
X0224779Y0273108D01*
X0224857Y0273249D01*
X0224939Y0273387D01*
X0225024Y0273524D01*
X0225112Y0273658D01*
X0225204Y0273790D01*
X0225299Y0273920D01*
X0225397Y0274048D01*
X0225498Y0274173D01*
X0225602Y0274295D01*
X0225709Y0274415D01*
X0225819Y0274532D01*
X0225932Y0274647D01*
X0226048Y0274758D01*
X0226167Y0274867D01*
X0226288Y0274972D01*
X0226412Y0275075D01*
X0226538Y0275175D01*
X0226666Y0275271D01*
X0226797Y0275364D01*
X0226931Y0275454D01*
X0227066Y0275541D01*
X0227204Y0275624D01*
X0227343Y0275704D01*
X0227485Y0275780D01*
X0227628Y0275853D01*
X0227773Y0275922D01*
X0227920Y0275988D01*
X0228068Y0276050D01*
X0228218Y0276108D01*
X0228369Y0276163D01*
X0228522Y0276214D01*
X0228676Y0276261D01*
X0228831Y0276304D01*
X0228987Y0276343D01*
X0229143Y0276379D01*
X0229301Y0276410D01*
X0229459Y0276438D01*
X0229618Y0276462D01*
X0229778Y0276482D01*
X0229938Y0276498D01*
X0230098Y0276510D01*
X0230259Y0276518D01*
X0230420Y0276522D01*
X0230580Y0276522D01*
X0230741Y0276518D01*
X0230902Y0276510D01*
X0231062Y0276498D01*
X0231222Y0276482D01*
X0231382Y0276462D01*
X0231541Y0276438D01*
X0231699Y0276410D01*
X0231857Y0276379D01*
X0232013Y0276343D01*
X0232169Y0276304D01*
X0232324Y0276261D01*
X0232478Y0276214D01*
X0232631Y0276163D01*
X0232782Y0276108D01*
X0232932Y0276050D01*
X0233080Y0275988D01*
X0233227Y0275922D01*
X0233372Y0275853D01*
X0233515Y0275780D01*
X0233657Y0275704D01*
X0233796Y0275624D01*
X0233934Y0275541D01*
X0234069Y0275454D01*
X0234203Y0275364D01*
X0234334Y0275271D01*
X0234462Y0275175D01*
X0234588Y0275075D01*
X0234712Y0274972D01*
X0234833Y0274867D01*
X0234952Y0274758D01*
X0235068Y0274647D01*
X0235181Y0274532D01*
X0235291Y0274415D01*
X0235398Y0274295D01*
X0235502Y0274173D01*
X0235603Y0274048D01*
X0235701Y0273920D01*
X0235796Y0273790D01*
X0235888Y0273658D01*
X0235976Y0273524D01*
X0236061Y0273387D01*
X0236143Y0273249D01*
X0236221Y0273108D01*
X0236295Y0272966D01*
X0236366Y0272822D01*
X0236434Y0272676D01*
X0236497Y0272528D01*
X0236558Y0272379D01*
X0236614Y0272228D01*
X0236667Y0272076D01*
X0236716Y0271923D01*
X0236761Y0271769D01*
X0236802Y0271614D01*
X0236840Y0271457D01*
X0236873Y0271300D01*
X0236903Y0271142D01*
X0236929Y0270983D01*
X0236950Y0270824D01*
X0236968Y0270664D01*
X0236982Y0270504D01*
X0236992Y0270343D01*
X0236998Y0270183D01*
X0237000Y0270022D01*
X0236998Y0269861D01*
X0236992Y0269701D01*
X0236982Y0269540D01*
X0236968Y0269380D01*
X0236950Y0269220D01*
X0236929Y0269061D01*
X0236903Y0268902D01*
X0236873Y0268744D01*
X0236840Y0268587D01*
X0236802Y0268430D01*
X0236761Y0268275D01*
X0236716Y0268121D01*
X0236667Y0267968D01*
X0236614Y0267816D01*
X0236558Y0267665D01*
X0236497Y0267516D01*
X0236434Y0267368D01*
X0236366Y0267222D01*
X0236295Y0267078D01*
X0236221Y0266936D01*
X0236143Y0266795D01*
X0236061Y0266657D01*
X0235976Y0266520D01*
X0235888Y0266386D01*
X0235796Y0266254D01*
X0235701Y0266124D01*
X0235603Y0265996D01*
X0235502Y0265871D01*
X0235398Y0265749D01*
X0235291Y0265629D01*
X0235181Y0265512D01*
X0235068Y0265397D01*
X0234952Y0265286D01*
X0234833Y0265177D01*
X0234712Y0265072D01*
X0234588Y0264969D01*
X0234462Y0264869D01*
X0234334Y0264773D01*
X0234203Y0264680D01*
X0234069Y0264590D01*
X0233934Y0264503D01*
X0233796Y0264420D01*
X0233657Y0264340D01*
X0233515Y0264264D01*
X0233372Y0264191D01*
X0233227Y0264122D01*
X0233080Y0264056D01*
X0232932Y0263994D01*
X0232782Y0263936D01*
X0232631Y0263881D01*
X0232478Y0263830D01*
X0232324Y0263783D01*
X0232169Y0263740D01*
X0232013Y0263701D01*
X0231857Y0263665D01*
X0231699Y0263634D01*
X0231541Y0263606D01*
X0231382Y0263582D01*
X0231222Y0263562D01*
X0231062Y0263546D01*
X0230902Y0263534D01*
X0230741Y0263526D01*
X0230580Y0263522D01*
X0230420Y0263522D01*
X0230259Y0263526D01*
X0230098Y0263534D01*
X0229938Y0263546D01*
X0229778Y0263562D01*
X0229618Y0263582D01*
X0229459Y0263606D01*
X0229301Y0263634D01*
X0229143Y0263665D01*
X0228987Y0263701D01*
X0228831Y0263740D01*
X0228676Y0263783D01*
X0228522Y0263830D01*
X0228369Y0263881D01*
X0228218Y0263936D01*
X0228068Y0263994D01*
X0227920Y0264056D01*
X0227773Y0264122D01*
X0227628Y0264191D01*
X0227485Y0264264D01*
X0227343Y0264340D01*
X0227204Y0264420D01*
X0227066Y0264503D01*
X0226931Y0264590D01*
X0226797Y0264680D01*
X0226666Y0264773D01*
X0226538Y0264869D01*
X0226412Y0264969D01*
X0226288Y0265072D01*
X0226167Y0265177D01*
X0226048Y0265286D01*
X0225932Y0265397D01*
X0225819Y0265512D01*
X0225709Y0265629D01*
X0225602Y0265749D01*
X0225498Y0265871D01*
X0225397Y0265996D01*
X0225299Y0266124D01*
X0225204Y0266254D01*
X0225112Y0266386D01*
X0225024Y0266520D01*
X0224939Y0266657D01*
X0224857Y0266795D01*
X0224779Y0266936D01*
X0224705Y0267078D01*
X0224634Y0267222D01*
X0224566Y0267368D01*
X0224503Y0267516D01*
X0224442Y0267665D01*
X0224386Y0267816D01*
X0224333Y0267968D01*
X0224284Y0268121D01*
X0224239Y0268275D01*
X0224198Y0268430D01*
X0224160Y0268587D01*
X0224127Y0268744D01*
X0224097Y0268902D01*
X0224071Y0269061D01*
X0224050Y0269220D01*
X0224032Y0269380D01*
X0224018Y0269540D01*
X0224008Y0269701D01*
X0224002Y0269861D01*
X0224000Y0270022D01*
D11*
X0185800Y0243100D02*
X0185800Y0242099D01*
X0184799Y0243100D01*
X0184549Y0243100D01*
X0184299Y0242849D01*
X0184299Y0242349D01*
X0184549Y0242099D01*
X0184549Y0241626D02*
X0184299Y0241376D01*
X0184299Y0240626D01*
X0185800Y0240626D01*
X0185800Y0241376D01*
X0185550Y0241626D01*
X0184549Y0241626D01*
X0178700Y0224046D02*
X0178700Y0223045D01*
X0178700Y0223546D02*
X0177199Y0223546D01*
X0177699Y0223045D01*
X0177449Y0222573D02*
X0177199Y0222323D01*
X0177199Y0221572D01*
X0178700Y0221572D01*
X0178700Y0222323D01*
X0178450Y0222573D01*
X0177449Y0222573D01*
X0166450Y0197546D02*
X0166450Y0196545D01*
X0165449Y0197546D01*
X0165199Y0197546D01*
X0164949Y0197296D01*
X0164949Y0196796D01*
X0165199Y0196545D01*
X0165199Y0196073D02*
X0165699Y0196073D01*
X0165950Y0195823D01*
X0165950Y0195072D01*
X0166450Y0195072D02*
X0164949Y0195072D01*
X0164949Y0195823D01*
X0165199Y0196073D01*
X0165950Y0195572D02*
X0166450Y0196073D01*
X0206799Y0098600D02*
X0207299Y0098600D01*
X0207550Y0098349D01*
X0207550Y0097599D01*
X0208050Y0097599D02*
X0206549Y0097599D01*
X0206549Y0098349D01*
X0206799Y0098600D01*
X0207550Y0098099D02*
X0208050Y0098600D01*
X0207800Y0097126D02*
X0206799Y0097126D01*
X0206549Y0096876D01*
X0206549Y0096376D01*
X0206799Y0096125D01*
X0207800Y0096125D01*
X0208050Y0096376D01*
X0208050Y0096876D01*
X0207800Y0097126D01*
X0206549Y0095653D02*
X0206549Y0094652D01*
X0206549Y0095153D02*
X0208050Y0095153D01*
X0208050Y0094180D02*
X0207049Y0094180D01*
X0206549Y0093679D01*
X0207049Y0093179D01*
X0208050Y0093179D01*
X0208050Y0092707D02*
X0206549Y0092707D01*
X0207299Y0093179D02*
X0207299Y0094180D01*
X0208050Y0092707D02*
X0206549Y0091706D01*
X0208050Y0091706D01*
X0207800Y0091233D02*
X0206799Y0091233D01*
X0206549Y0090983D01*
X0206549Y0090483D01*
X0206799Y0090232D01*
X0207800Y0090232D01*
X0208050Y0090483D01*
X0208050Y0090983D01*
X0207800Y0091233D01*
X0207800Y0089760D02*
X0208050Y0089510D01*
X0208050Y0089009D01*
X0207800Y0088759D01*
X0208050Y0088287D02*
X0208050Y0087286D01*
X0206549Y0087286D01*
X0206549Y0088287D01*
X0206799Y0088759D02*
X0207049Y0088759D01*
X0207299Y0089009D01*
X0207299Y0089510D01*
X0207550Y0089760D01*
X0207800Y0089760D01*
X0206799Y0089760D02*
X0206549Y0089510D01*
X0206549Y0089009D01*
X0206799Y0088759D01*
X0207299Y0087786D02*
X0207299Y0087286D01*
X0207299Y0086814D02*
X0207550Y0086563D01*
X0207550Y0085813D01*
X0208050Y0085813D02*
X0206549Y0085813D01*
X0206549Y0086563D01*
X0206799Y0086814D01*
X0207299Y0086814D01*
X0207550Y0086313D02*
X0208050Y0086814D01*
X0208300Y0085340D02*
X0208300Y0084339D01*
X0208050Y0083867D02*
X0207550Y0083367D01*
X0208050Y0083617D02*
X0208050Y0083116D01*
X0207800Y0082866D01*
X0206799Y0082866D01*
X0206549Y0083116D01*
X0206549Y0083617D01*
X0206799Y0083867D01*
X0207800Y0083867D01*
X0208050Y0083617D01*
X0208050Y0082394D02*
X0208050Y0081393D01*
X0206549Y0081393D01*
X0206549Y0082394D01*
X0207299Y0081893D02*
X0207299Y0081393D01*
X0207299Y0080921D02*
X0207550Y0080670D01*
X0207550Y0079920D01*
X0208050Y0079920D02*
X0206549Y0079920D01*
X0206549Y0080670D01*
X0206799Y0080921D01*
X0207299Y0080921D01*
X0207550Y0080420D02*
X0208050Y0080921D01*
X0206549Y0079447D02*
X0206549Y0078446D01*
X0208050Y0078446D01*
X0207299Y0078446D02*
X0207299Y0078947D01*
X0140050Y0047850D02*
X0140050Y0046849D01*
X0140050Y0046376D02*
X0139550Y0045876D01*
X0139800Y0046376D02*
X0140050Y0046126D01*
X0140050Y0045626D01*
X0139800Y0045376D01*
X0138799Y0045376D01*
X0138549Y0045626D01*
X0138549Y0046126D01*
X0138799Y0046376D01*
X0139800Y0046376D01*
X0139049Y0046849D02*
X0138549Y0047349D01*
X0140050Y0047349D01*
X0130827Y0004225D02*
X0131078Y0003975D01*
X0131078Y0002974D01*
X0130827Y0002724D01*
X0130327Y0002724D01*
X0130077Y0002974D01*
X0130077Y0003975D01*
X0130327Y0004225D01*
X0130827Y0004225D01*
X0129604Y0004225D02*
X0129604Y0003224D01*
X0129104Y0002724D01*
X0128603Y0003224D01*
X0128603Y0004225D01*
X0128131Y0003975D02*
X0127881Y0004225D01*
X0127380Y0004225D01*
X0127130Y0003975D01*
X0128131Y0003975D02*
X0128131Y0003725D01*
X0127130Y0002724D01*
X0128131Y0002724D01*
X0126658Y0002724D02*
X0125657Y0002724D01*
X0126157Y0002724D02*
X0126157Y0004225D01*
X0125657Y0003725D01*
X0088550Y0085626D02*
X0087049Y0085626D01*
X0087049Y0086376D01*
X0087299Y0086626D01*
X0088300Y0086626D01*
X0088550Y0086376D01*
X0088550Y0085626D01*
X0088300Y0087099D02*
X0088550Y0087349D01*
X0088550Y0087849D01*
X0088300Y0088100D01*
X0088050Y0088100D01*
X0087799Y0087849D01*
X0087799Y0087599D01*
X0087799Y0087849D02*
X0087549Y0088100D01*
X0087299Y0088100D01*
X0087049Y0087849D01*
X0087049Y0087349D01*
X0087299Y0087099D01*
X0086050Y0110626D02*
X0084549Y0110626D01*
X0084549Y0111376D01*
X0084799Y0111626D01*
X0085299Y0111626D01*
X0085550Y0111376D01*
X0085550Y0110626D01*
X0085550Y0111126D02*
X0086050Y0111626D01*
X0085299Y0112099D02*
X0085299Y0113100D01*
X0084549Y0112849D02*
X0085299Y0112099D01*
X0084549Y0112849D02*
X0086050Y0112849D01*
X0080874Y0182041D02*
X0079874Y0182041D01*
X0080874Y0183041D01*
X0080874Y0183292D01*
X0080624Y0183542D01*
X0080124Y0183542D01*
X0079874Y0183292D01*
X0079401Y0183292D02*
X0079151Y0183542D01*
X0078651Y0183542D01*
X0078400Y0183292D01*
X0078400Y0182291D01*
X0078651Y0182041D01*
X0079151Y0182041D01*
X0079401Y0182291D01*
X0083549Y0206630D02*
X0083549Y0207380D01*
X0083799Y0207630D01*
X0084299Y0207630D01*
X0084550Y0207380D01*
X0084550Y0206630D01*
X0084550Y0207130D02*
X0085050Y0207630D01*
X0085050Y0208103D02*
X0085050Y0209104D01*
X0084800Y0209576D02*
X0085050Y0209826D01*
X0085050Y0210327D01*
X0084800Y0210577D01*
X0084550Y0210577D01*
X0084299Y0210327D01*
X0084299Y0209826D01*
X0084049Y0209576D01*
X0083799Y0209576D01*
X0083549Y0209826D01*
X0083549Y0210327D01*
X0083799Y0210577D01*
X0083549Y0211049D02*
X0085050Y0211049D01*
X0085050Y0212050D01*
X0084299Y0211550D02*
X0084299Y0211049D01*
X0083549Y0211049D02*
X0083549Y0212050D01*
X0083549Y0212523D02*
X0083549Y0213523D01*
X0083549Y0213023D02*
X0085050Y0213023D01*
X0085050Y0213996D02*
X0085050Y0214246D01*
X0084800Y0214246D01*
X0084800Y0213996D01*
X0085050Y0213996D01*
X0085050Y0214732D02*
X0085050Y0215483D01*
X0084800Y0215733D01*
X0084550Y0215733D01*
X0084299Y0215483D01*
X0084299Y0214732D01*
X0083549Y0214732D02*
X0083549Y0215483D01*
X0083799Y0215733D01*
X0084049Y0215733D01*
X0084299Y0215483D01*
X0084800Y0216206D02*
X0085050Y0216456D01*
X0085050Y0216956D01*
X0084800Y0217207D01*
X0083549Y0217207D01*
X0083549Y0217679D02*
X0083549Y0218680D01*
X0083549Y0219152D02*
X0083549Y0220153D01*
X0083549Y0219653D02*
X0085050Y0219653D01*
X0084800Y0220625D02*
X0085050Y0220876D01*
X0085050Y0221376D01*
X0084800Y0221626D01*
X0083799Y0221626D01*
X0083549Y0221376D01*
X0083549Y0220876D01*
X0083799Y0220625D01*
X0084800Y0220625D01*
X0085050Y0222099D02*
X0083549Y0222099D01*
X0085050Y0223100D01*
X0083549Y0223100D01*
X0083549Y0218179D02*
X0085050Y0218179D01*
X0084800Y0216206D02*
X0083549Y0216206D01*
X0083549Y0214732D02*
X0085050Y0214732D01*
X0083549Y0209104D02*
X0083549Y0208103D01*
X0085050Y0208103D01*
X0084299Y0208103D02*
X0084299Y0208603D01*
X0083549Y0206630D02*
X0085050Y0206630D01*
X0078450Y0261572D02*
X0076949Y0261572D01*
X0076949Y0262323D01*
X0077199Y0262573D01*
X0077699Y0262573D01*
X0077950Y0262323D01*
X0077950Y0261572D01*
X0077950Y0262072D02*
X0078450Y0262573D01*
X0078200Y0263045D02*
X0078450Y0263296D01*
X0078450Y0263796D01*
X0078200Y0264046D01*
X0077950Y0264046D01*
X0077699Y0263796D01*
X0077699Y0263546D01*
X0077699Y0263796D02*
X0077449Y0264046D01*
X0077199Y0264046D01*
X0076949Y0263796D01*
X0076949Y0263296D01*
X0077199Y0263045D01*
X0083767Y0285275D02*
X0084768Y0285275D01*
X0085019Y0285525D01*
X0085019Y0286026D01*
X0084768Y0286276D01*
X0085019Y0286748D02*
X0085019Y0287749D01*
X0085019Y0287249D02*
X0083517Y0287249D01*
X0084018Y0286748D01*
X0083767Y0286276D02*
X0083517Y0286026D01*
X0083517Y0285525D01*
X0083767Y0285275D01*
X0121550Y0330820D02*
X0122551Y0330820D01*
X0123023Y0330820D02*
X0124024Y0331821D01*
X0124024Y0332071D01*
X0123774Y0332321D01*
X0123273Y0332321D01*
X0123023Y0332071D01*
X0122050Y0332321D02*
X0122050Y0330820D01*
X0123023Y0330820D02*
X0124024Y0330820D01*
X0124497Y0331320D02*
X0124997Y0330820D01*
X0125497Y0331320D01*
X0125497Y0332321D01*
X0125970Y0332321D02*
X0126470Y0332321D01*
X0126220Y0332321D02*
X0126220Y0330820D01*
X0125970Y0330820D02*
X0126470Y0330820D01*
X0126952Y0330820D02*
X0126952Y0332321D01*
X0127953Y0330820D01*
X0127953Y0332321D01*
X0124497Y0332321D02*
X0124497Y0331320D01*
X0122050Y0332321D02*
X0121550Y0331821D01*
D12*
X0114886Y0333644D02*
X0138114Y0333644D01*
X0138114Y0303723D01*
X0135555Y0303723D01*
X0135555Y0310022D01*
X0117445Y0310022D02*
X0117445Y0303723D01*
X0114886Y0303723D01*
X0114886Y0333644D01*
X0086618Y0291321D02*
X0086618Y0278723D01*
X0076382Y0278723D02*
X0076382Y0291321D01*
X0073154Y0251124D02*
X0073154Y0238920D01*
X0079846Y0238920D01*
X0079846Y0251124D01*
X0073154Y0251124D01*
X0114500Y0230022D02*
X0114500Y0229022D01*
X0114500Y0230022D02*
X0121500Y0230022D01*
X0121502Y0229882D01*
X0121508Y0229742D01*
X0121518Y0229602D01*
X0121531Y0229462D01*
X0121549Y0229323D01*
X0121571Y0229184D01*
X0121596Y0229047D01*
X0121625Y0228909D01*
X0121658Y0228773D01*
X0121695Y0228638D01*
X0121736Y0228504D01*
X0121781Y0228371D01*
X0121829Y0228239D01*
X0121881Y0228109D01*
X0121936Y0227980D01*
X0121995Y0227853D01*
X0122058Y0227727D01*
X0122124Y0227603D01*
X0122193Y0227482D01*
X0122266Y0227362D01*
X0122343Y0227244D01*
X0122422Y0227129D01*
X0122505Y0227015D01*
X0122591Y0226905D01*
X0122680Y0226796D01*
X0122772Y0226690D01*
X0122867Y0226587D01*
X0122964Y0226486D01*
X0123065Y0226389D01*
X0123168Y0226294D01*
X0123274Y0226202D01*
X0123383Y0226113D01*
X0123493Y0226027D01*
X0123607Y0225944D01*
X0123722Y0225865D01*
X0123840Y0225788D01*
X0123960Y0225715D01*
X0124081Y0225646D01*
X0124205Y0225580D01*
X0124331Y0225517D01*
X0124458Y0225458D01*
X0124587Y0225403D01*
X0124717Y0225351D01*
X0124849Y0225303D01*
X0124982Y0225258D01*
X0125116Y0225217D01*
X0125251Y0225180D01*
X0125387Y0225147D01*
X0125525Y0225118D01*
X0125662Y0225093D01*
X0125801Y0225071D01*
X0125940Y0225053D01*
X0126080Y0225040D01*
X0126220Y0225030D01*
X0126360Y0225024D01*
X0126500Y0225022D01*
X0126640Y0225024D01*
X0126780Y0225030D01*
X0126920Y0225040D01*
X0127060Y0225053D01*
X0127199Y0225071D01*
X0127338Y0225093D01*
X0127475Y0225118D01*
X0127613Y0225147D01*
X0127749Y0225180D01*
X0127884Y0225217D01*
X0128018Y0225258D01*
X0128151Y0225303D01*
X0128283Y0225351D01*
X0128413Y0225403D01*
X0128542Y0225458D01*
X0128669Y0225517D01*
X0128795Y0225580D01*
X0128919Y0225646D01*
X0129040Y0225715D01*
X0129160Y0225788D01*
X0129278Y0225865D01*
X0129393Y0225944D01*
X0129507Y0226027D01*
X0129617Y0226113D01*
X0129726Y0226202D01*
X0129832Y0226294D01*
X0129935Y0226389D01*
X0130036Y0226486D01*
X0130133Y0226587D01*
X0130228Y0226690D01*
X0130320Y0226796D01*
X0130409Y0226905D01*
X0130495Y0227015D01*
X0130578Y0227129D01*
X0130657Y0227244D01*
X0130734Y0227362D01*
X0130807Y0227482D01*
X0130876Y0227603D01*
X0130942Y0227727D01*
X0131005Y0227853D01*
X0131064Y0227980D01*
X0131119Y0228109D01*
X0131171Y0228239D01*
X0131219Y0228371D01*
X0131264Y0228504D01*
X0131305Y0228638D01*
X0131342Y0228773D01*
X0131375Y0228909D01*
X0131404Y0229047D01*
X0131429Y0229184D01*
X0131451Y0229323D01*
X0131469Y0229462D01*
X0131482Y0229602D01*
X0131492Y0229742D01*
X0131498Y0229882D01*
X0131500Y0230022D01*
X0138500Y0230022D01*
X0138500Y0229022D01*
X0168500Y0215022D02*
X0168500Y0195022D01*
X0171500Y0195022D01*
X0171500Y0194022D01*
X0171500Y0195022D02*
X0174500Y0195022D01*
X0174500Y0215022D01*
X0171500Y0215022D01*
X0171500Y0216022D01*
X0171500Y0215022D02*
X0168500Y0215022D01*
X0180640Y0224471D02*
X0181400Y0225631D01*
X0181500Y0225691D02*
X0182420Y0224471D01*
X0183311Y0225691D02*
X0181500Y0225691D01*
X0179689Y0225691D01*
X0179689Y0239353D02*
X0181500Y0239353D01*
X0180580Y0240573D01*
X0181500Y0239353D02*
X0183311Y0239353D01*
X0182360Y0240573D02*
X0181600Y0239413D01*
X0174000Y0180022D02*
X0169000Y0180022D01*
X0166500Y0177522D01*
X0166500Y0172522D01*
X0169000Y0170022D01*
X0166500Y0167522D01*
X0166500Y0162522D01*
X0169000Y0160022D01*
X0166500Y0157522D01*
X0166500Y0152522D01*
X0169000Y0150022D01*
X0166500Y0147522D01*
X0166500Y0142522D01*
X0169000Y0140022D01*
X0166500Y0137522D01*
X0166500Y0132522D01*
X0169000Y0130022D01*
X0166500Y0127522D01*
X0166500Y0122522D01*
X0169000Y0120022D01*
X0166500Y0117522D01*
X0166500Y0112522D01*
X0169000Y0110022D01*
X0166500Y0107522D01*
X0166500Y0102522D01*
X0169000Y0100022D01*
X0166500Y0097522D01*
X0166500Y0092522D01*
X0169000Y0090022D01*
X0166500Y0087522D01*
X0166500Y0082522D01*
X0169000Y0080022D01*
X0174000Y0080022D01*
X0176500Y0082522D01*
X0176500Y0087522D01*
X0174000Y0090022D01*
X0176500Y0092522D01*
X0176500Y0097522D01*
X0174000Y0100022D01*
X0176500Y0102522D01*
X0176500Y0107522D01*
X0174000Y0110022D01*
X0176500Y0112522D01*
X0176500Y0117522D01*
X0174000Y0120022D01*
X0176500Y0122522D01*
X0176500Y0127522D01*
X0174000Y0130022D01*
X0176500Y0132522D01*
X0176500Y0137522D01*
X0174000Y0140022D01*
X0176500Y0142522D01*
X0176500Y0147522D01*
X0174000Y0150022D01*
X0176500Y0152522D01*
X0176500Y0157522D01*
X0174000Y0160022D01*
X0176500Y0162522D01*
X0176500Y0167522D01*
X0174000Y0170022D01*
X0176500Y0172522D01*
X0176500Y0177522D01*
X0174000Y0180022D01*
X0198981Y0102419D02*
X0204099Y0102419D01*
X0204099Y0087655D02*
X0198981Y0087655D01*
X0138500Y0090022D02*
X0138500Y0091022D01*
X0138500Y0090022D02*
X0114500Y0090022D01*
X0114500Y0091022D01*
X0085437Y0088959D02*
X0085437Y0094471D01*
X0077563Y0094471D01*
X0077563Y0088959D01*
X0079138Y0086203D02*
X0081500Y0083841D01*
X0083862Y0086203D01*
X0079138Y0086203D01*
X0078744Y0083841D02*
X0081500Y0083841D01*
X0084256Y0083841D01*
X0085437Y0081085D02*
X0085437Y0075573D01*
X0077563Y0075573D01*
X0077563Y0081085D01*
X0114886Y0031321D02*
X0117445Y0031321D01*
X0117445Y0025022D01*
X0114886Y0031321D02*
X0114886Y0001400D01*
X0138114Y0001400D01*
X0138114Y0031321D01*
X0135555Y0031321D01*
X0135555Y0025022D01*
X0134256Y0039510D02*
X0131106Y0039510D01*
X0134256Y0039510D02*
X0134256Y0041872D01*
X0134256Y0048172D02*
X0134256Y0050534D01*
X0131106Y0050534D01*
X0087799Y0174904D02*
X0075201Y0174904D01*
X0075201Y0185140D02*
X0087799Y0185140D01*
D13*
X0066500Y0165522D02*
X0017500Y0165522D01*
X0017500Y0162022D01*
X0011500Y0162022D01*
X0011500Y0165522D01*
X0004000Y0165522D01*
X0004000Y0124522D01*
X0011500Y0124522D01*
X0011500Y0128022D01*
X0017500Y0128022D01*
X0017500Y0124522D01*
X0066500Y0124522D01*
X0066500Y0165522D01*
X0010400Y0145022D02*
X0010402Y0145196D01*
X0010409Y0145370D01*
X0010419Y0145544D01*
X0010434Y0145718D01*
X0010453Y0145891D01*
X0010477Y0146064D01*
X0010505Y0146236D01*
X0010536Y0146407D01*
X0010573Y0146578D01*
X0010613Y0146747D01*
X0010657Y0146916D01*
X0010706Y0147083D01*
X0010758Y0147249D01*
X0010815Y0147414D01*
X0010876Y0147577D01*
X0010940Y0147739D01*
X0011009Y0147899D01*
X0011082Y0148058D01*
X0011158Y0148214D01*
X0011238Y0148369D01*
X0011322Y0148522D01*
X0011410Y0148672D01*
X0011502Y0148820D01*
X0011597Y0148967D01*
X0011695Y0149110D01*
X0011797Y0149251D01*
X0011903Y0149390D01*
X0012012Y0149526D01*
X0012124Y0149660D01*
X0012239Y0149790D01*
X0012358Y0149918D01*
X0012480Y0150042D01*
X0012604Y0150164D01*
X0012732Y0150283D01*
X0012862Y0150398D01*
X0012996Y0150510D01*
X0013132Y0150619D01*
X0013271Y0150725D01*
X0013412Y0150827D01*
X0013555Y0150925D01*
X0013702Y0151020D01*
X0013850Y0151112D01*
X0014000Y0151200D01*
X0014153Y0151284D01*
X0014308Y0151364D01*
X0014464Y0151440D01*
X0014623Y0151513D01*
X0014783Y0151582D01*
X0014945Y0151646D01*
X0015108Y0151707D01*
X0015273Y0151764D01*
X0015439Y0151816D01*
X0015606Y0151865D01*
X0015775Y0151909D01*
X0015944Y0151949D01*
X0016115Y0151986D01*
X0016286Y0152017D01*
X0016458Y0152045D01*
X0016631Y0152069D01*
X0016804Y0152088D01*
X0016978Y0152103D01*
X0017152Y0152113D01*
X0017326Y0152120D01*
X0017500Y0152122D01*
X0017674Y0152120D01*
X0017848Y0152113D01*
X0018022Y0152103D01*
X0018196Y0152088D01*
X0018369Y0152069D01*
X0018542Y0152045D01*
X0018714Y0152017D01*
X0018885Y0151986D01*
X0019056Y0151949D01*
X0019225Y0151909D01*
X0019394Y0151865D01*
X0019561Y0151816D01*
X0019727Y0151764D01*
X0019892Y0151707D01*
X0020055Y0151646D01*
X0020217Y0151582D01*
X0020377Y0151513D01*
X0020536Y0151440D01*
X0020692Y0151364D01*
X0020847Y0151284D01*
X0021000Y0151200D01*
X0021150Y0151112D01*
X0021298Y0151020D01*
X0021445Y0150925D01*
X0021588Y0150827D01*
X0021729Y0150725D01*
X0021868Y0150619D01*
X0022004Y0150510D01*
X0022138Y0150398D01*
X0022268Y0150283D01*
X0022396Y0150164D01*
X0022520Y0150042D01*
X0022642Y0149918D01*
X0022761Y0149790D01*
X0022876Y0149660D01*
X0022988Y0149526D01*
X0023097Y0149390D01*
X0023203Y0149251D01*
X0023305Y0149110D01*
X0023403Y0148967D01*
X0023498Y0148820D01*
X0023590Y0148672D01*
X0023678Y0148522D01*
X0023762Y0148369D01*
X0023842Y0148214D01*
X0023918Y0148058D01*
X0023991Y0147899D01*
X0024060Y0147739D01*
X0024124Y0147577D01*
X0024185Y0147414D01*
X0024242Y0147249D01*
X0024294Y0147083D01*
X0024343Y0146916D01*
X0024387Y0146747D01*
X0024427Y0146578D01*
X0024464Y0146407D01*
X0024495Y0146236D01*
X0024523Y0146064D01*
X0024547Y0145891D01*
X0024566Y0145718D01*
X0024581Y0145544D01*
X0024591Y0145370D01*
X0024598Y0145196D01*
X0024600Y0145022D01*
X0024598Y0144848D01*
X0024591Y0144674D01*
X0024581Y0144500D01*
X0024566Y0144326D01*
X0024547Y0144153D01*
X0024523Y0143980D01*
X0024495Y0143808D01*
X0024464Y0143637D01*
X0024427Y0143466D01*
X0024387Y0143297D01*
X0024343Y0143128D01*
X0024294Y0142961D01*
X0024242Y0142795D01*
X0024185Y0142630D01*
X0024124Y0142467D01*
X0024060Y0142305D01*
X0023991Y0142145D01*
X0023918Y0141986D01*
X0023842Y0141830D01*
X0023762Y0141675D01*
X0023678Y0141522D01*
X0023590Y0141372D01*
X0023498Y0141224D01*
X0023403Y0141077D01*
X0023305Y0140934D01*
X0023203Y0140793D01*
X0023097Y0140654D01*
X0022988Y0140518D01*
X0022876Y0140384D01*
X0022761Y0140254D01*
X0022642Y0140126D01*
X0022520Y0140002D01*
X0022396Y0139880D01*
X0022268Y0139761D01*
X0022138Y0139646D01*
X0022004Y0139534D01*
X0021868Y0139425D01*
X0021729Y0139319D01*
X0021588Y0139217D01*
X0021445Y0139119D01*
X0021298Y0139024D01*
X0021150Y0138932D01*
X0021000Y0138844D01*
X0020847Y0138760D01*
X0020692Y0138680D01*
X0020536Y0138604D01*
X0020377Y0138531D01*
X0020217Y0138462D01*
X0020055Y0138398D01*
X0019892Y0138337D01*
X0019727Y0138280D01*
X0019561Y0138228D01*
X0019394Y0138179D01*
X0019225Y0138135D01*
X0019056Y0138095D01*
X0018885Y0138058D01*
X0018714Y0138027D01*
X0018542Y0137999D01*
X0018369Y0137975D01*
X0018196Y0137956D01*
X0018022Y0137941D01*
X0017848Y0137931D01*
X0017674Y0137924D01*
X0017500Y0137922D01*
X0017326Y0137924D01*
X0017152Y0137931D01*
X0016978Y0137941D01*
X0016804Y0137956D01*
X0016631Y0137975D01*
X0016458Y0137999D01*
X0016286Y0138027D01*
X0016115Y0138058D01*
X0015944Y0138095D01*
X0015775Y0138135D01*
X0015606Y0138179D01*
X0015439Y0138228D01*
X0015273Y0138280D01*
X0015108Y0138337D01*
X0014945Y0138398D01*
X0014783Y0138462D01*
X0014623Y0138531D01*
X0014464Y0138604D01*
X0014308Y0138680D01*
X0014153Y0138760D01*
X0014000Y0138844D01*
X0013850Y0138932D01*
X0013702Y0139024D01*
X0013555Y0139119D01*
X0013412Y0139217D01*
X0013271Y0139319D01*
X0013132Y0139425D01*
X0012996Y0139534D01*
X0012862Y0139646D01*
X0012732Y0139761D01*
X0012604Y0139880D01*
X0012480Y0140002D01*
X0012358Y0140126D01*
X0012239Y0140254D01*
X0012124Y0140384D01*
X0012012Y0140518D01*
X0011903Y0140654D01*
X0011797Y0140793D01*
X0011695Y0140934D01*
X0011597Y0141077D01*
X0011502Y0141224D01*
X0011410Y0141372D01*
X0011322Y0141522D01*
X0011238Y0141675D01*
X0011158Y0141830D01*
X0011082Y0141986D01*
X0011009Y0142145D01*
X0010940Y0142305D01*
X0010876Y0142467D01*
X0010815Y0142630D01*
X0010758Y0142795D01*
X0010706Y0142961D01*
X0010657Y0143128D01*
X0010613Y0143297D01*
X0010573Y0143466D01*
X0010536Y0143637D01*
X0010505Y0143808D01*
X0010477Y0143980D01*
X0010453Y0144153D01*
X0010434Y0144326D01*
X0010419Y0144500D01*
X0010409Y0144674D01*
X0010402Y0144848D01*
X0010400Y0145022D01*
X0169297Y0197889D02*
X0169864Y0197322D01*
X0169297Y0197889D02*
X0169297Y0199023D01*
X0169864Y0199591D01*
X0170431Y0199591D01*
X0172700Y0197322D01*
X0172700Y0199591D01*
X0172700Y0201005D02*
X0170431Y0203274D01*
X0169864Y0203274D01*
X0169297Y0202707D01*
X0169297Y0201572D01*
X0169864Y0201005D01*
X0172700Y0201005D02*
X0172700Y0203274D01*
X0172133Y0204688D02*
X0169864Y0206957D01*
X0172133Y0206957D01*
X0172700Y0206390D01*
X0172700Y0205255D01*
X0172133Y0204688D01*
X0169864Y0204688D01*
X0169297Y0205255D01*
X0169297Y0206390D01*
X0169864Y0206957D01*
X0181500Y0249522D02*
X0230500Y0249522D01*
X0230500Y0253022D01*
X0236500Y0253022D01*
X0236500Y0249522D01*
X0244000Y0249522D01*
X0244000Y0290522D01*
X0236500Y0290522D01*
X0236500Y0287022D01*
X0230500Y0287022D01*
X0230500Y0290522D01*
X0181500Y0290522D01*
X0181500Y0249522D01*
X0223400Y0270022D02*
X0223402Y0270196D01*
X0223409Y0270370D01*
X0223419Y0270544D01*
X0223434Y0270718D01*
X0223453Y0270891D01*
X0223477Y0271064D01*
X0223505Y0271236D01*
X0223536Y0271407D01*
X0223573Y0271578D01*
X0223613Y0271747D01*
X0223657Y0271916D01*
X0223706Y0272083D01*
X0223758Y0272249D01*
X0223815Y0272414D01*
X0223876Y0272577D01*
X0223940Y0272739D01*
X0224009Y0272899D01*
X0224082Y0273058D01*
X0224158Y0273214D01*
X0224238Y0273369D01*
X0224322Y0273522D01*
X0224410Y0273672D01*
X0224502Y0273820D01*
X0224597Y0273967D01*
X0224695Y0274110D01*
X0224797Y0274251D01*
X0224903Y0274390D01*
X0225012Y0274526D01*
X0225124Y0274660D01*
X0225239Y0274790D01*
X0225358Y0274918D01*
X0225480Y0275042D01*
X0225604Y0275164D01*
X0225732Y0275283D01*
X0225862Y0275398D01*
X0225996Y0275510D01*
X0226132Y0275619D01*
X0226271Y0275725D01*
X0226412Y0275827D01*
X0226555Y0275925D01*
X0226702Y0276020D01*
X0226850Y0276112D01*
X0227000Y0276200D01*
X0227153Y0276284D01*
X0227308Y0276364D01*
X0227464Y0276440D01*
X0227623Y0276513D01*
X0227783Y0276582D01*
X0227945Y0276646D01*
X0228108Y0276707D01*
X0228273Y0276764D01*
X0228439Y0276816D01*
X0228606Y0276865D01*
X0228775Y0276909D01*
X0228944Y0276949D01*
X0229115Y0276986D01*
X0229286Y0277017D01*
X0229458Y0277045D01*
X0229631Y0277069D01*
X0229804Y0277088D01*
X0229978Y0277103D01*
X0230152Y0277113D01*
X0230326Y0277120D01*
X0230500Y0277122D01*
X0230674Y0277120D01*
X0230848Y0277113D01*
X0231022Y0277103D01*
X0231196Y0277088D01*
X0231369Y0277069D01*
X0231542Y0277045D01*
X0231714Y0277017D01*
X0231885Y0276986D01*
X0232056Y0276949D01*
X0232225Y0276909D01*
X0232394Y0276865D01*
X0232561Y0276816D01*
X0232727Y0276764D01*
X0232892Y0276707D01*
X0233055Y0276646D01*
X0233217Y0276582D01*
X0233377Y0276513D01*
X0233536Y0276440D01*
X0233692Y0276364D01*
X0233847Y0276284D01*
X0234000Y0276200D01*
X0234150Y0276112D01*
X0234298Y0276020D01*
X0234445Y0275925D01*
X0234588Y0275827D01*
X0234729Y0275725D01*
X0234868Y0275619D01*
X0235004Y0275510D01*
X0235138Y0275398D01*
X0235268Y0275283D01*
X0235396Y0275164D01*
X0235520Y0275042D01*
X0235642Y0274918D01*
X0235761Y0274790D01*
X0235876Y0274660D01*
X0235988Y0274526D01*
X0236097Y0274390D01*
X0236203Y0274251D01*
X0236305Y0274110D01*
X0236403Y0273967D01*
X0236498Y0273820D01*
X0236590Y0273672D01*
X0236678Y0273522D01*
X0236762Y0273369D01*
X0236842Y0273214D01*
X0236918Y0273058D01*
X0236991Y0272899D01*
X0237060Y0272739D01*
X0237124Y0272577D01*
X0237185Y0272414D01*
X0237242Y0272249D01*
X0237294Y0272083D01*
X0237343Y0271916D01*
X0237387Y0271747D01*
X0237427Y0271578D01*
X0237464Y0271407D01*
X0237495Y0271236D01*
X0237523Y0271064D01*
X0237547Y0270891D01*
X0237566Y0270718D01*
X0237581Y0270544D01*
X0237591Y0270370D01*
X0237598Y0270196D01*
X0237600Y0270022D01*
X0237598Y0269848D01*
X0237591Y0269674D01*
X0237581Y0269500D01*
X0237566Y0269326D01*
X0237547Y0269153D01*
X0237523Y0268980D01*
X0237495Y0268808D01*
X0237464Y0268637D01*
X0237427Y0268466D01*
X0237387Y0268297D01*
X0237343Y0268128D01*
X0237294Y0267961D01*
X0237242Y0267795D01*
X0237185Y0267630D01*
X0237124Y0267467D01*
X0237060Y0267305D01*
X0236991Y0267145D01*
X0236918Y0266986D01*
X0236842Y0266830D01*
X0236762Y0266675D01*
X0236678Y0266522D01*
X0236590Y0266372D01*
X0236498Y0266224D01*
X0236403Y0266077D01*
X0236305Y0265934D01*
X0236203Y0265793D01*
X0236097Y0265654D01*
X0235988Y0265518D01*
X0235876Y0265384D01*
X0235761Y0265254D01*
X0235642Y0265126D01*
X0235520Y0265002D01*
X0235396Y0264880D01*
X0235268Y0264761D01*
X0235138Y0264646D01*
X0235004Y0264534D01*
X0234868Y0264425D01*
X0234729Y0264319D01*
X0234588Y0264217D01*
X0234445Y0264119D01*
X0234298Y0264024D01*
X0234150Y0263932D01*
X0234000Y0263844D01*
X0233847Y0263760D01*
X0233692Y0263680D01*
X0233536Y0263604D01*
X0233377Y0263531D01*
X0233217Y0263462D01*
X0233055Y0263398D01*
X0232892Y0263337D01*
X0232727Y0263280D01*
X0232561Y0263228D01*
X0232394Y0263179D01*
X0232225Y0263135D01*
X0232056Y0263095D01*
X0231885Y0263058D01*
X0231714Y0263027D01*
X0231542Y0262999D01*
X0231369Y0262975D01*
X0231196Y0262956D01*
X0231022Y0262941D01*
X0230848Y0262931D01*
X0230674Y0262924D01*
X0230500Y0262922D01*
X0230326Y0262924D01*
X0230152Y0262931D01*
X0229978Y0262941D01*
X0229804Y0262956D01*
X0229631Y0262975D01*
X0229458Y0262999D01*
X0229286Y0263027D01*
X0229115Y0263058D01*
X0228944Y0263095D01*
X0228775Y0263135D01*
X0228606Y0263179D01*
X0228439Y0263228D01*
X0228273Y0263280D01*
X0228108Y0263337D01*
X0227945Y0263398D01*
X0227783Y0263462D01*
X0227623Y0263531D01*
X0227464Y0263604D01*
X0227308Y0263680D01*
X0227153Y0263760D01*
X0227000Y0263844D01*
X0226850Y0263932D01*
X0226702Y0264024D01*
X0226555Y0264119D01*
X0226412Y0264217D01*
X0226271Y0264319D01*
X0226132Y0264425D01*
X0225996Y0264534D01*
X0225862Y0264646D01*
X0225732Y0264761D01*
X0225604Y0264880D01*
X0225480Y0265002D01*
X0225358Y0265126D01*
X0225239Y0265254D01*
X0225124Y0265384D01*
X0225012Y0265518D01*
X0224903Y0265654D01*
X0224797Y0265793D01*
X0224695Y0265934D01*
X0224597Y0266077D01*
X0224502Y0266224D01*
X0224410Y0266372D01*
X0224322Y0266522D01*
X0224238Y0266675D01*
X0224158Y0266830D01*
X0224082Y0266986D01*
X0224009Y0267145D01*
X0223940Y0267305D01*
X0223876Y0267467D01*
X0223815Y0267630D01*
X0223758Y0267795D01*
X0223706Y0267961D01*
X0223657Y0268128D01*
X0223613Y0268297D01*
X0223573Y0268466D01*
X0223536Y0268637D01*
X0223505Y0268808D01*
X0223477Y0268980D01*
X0223453Y0269153D01*
X0223434Y0269326D01*
X0223419Y0269500D01*
X0223409Y0269674D01*
X0223402Y0269848D01*
X0223400Y0270022D01*
D14*
X0216500Y0252022D02*
X0216500Y0288022D01*
X0184000Y0288022D01*
X0184000Y0252022D01*
X0216500Y0252022D01*
X0128800Y0219013D02*
X0128800Y0218279D01*
X0128433Y0217912D01*
X0128066Y0217912D01*
X0127699Y0218279D01*
X0127699Y0219013D01*
X0128066Y0219380D01*
X0128433Y0219380D01*
X0128800Y0219013D01*
X0127699Y0219013D02*
X0127332Y0219380D01*
X0126965Y0219380D01*
X0126598Y0219013D01*
X0126598Y0218279D01*
X0126965Y0217912D01*
X0127332Y0217912D01*
X0127699Y0218279D01*
X0127332Y0217170D02*
X0126965Y0217170D01*
X0126598Y0216803D01*
X0126598Y0216069D01*
X0126965Y0215702D01*
X0126965Y0214960D02*
X0127332Y0214960D01*
X0127699Y0214593D01*
X0128066Y0214960D01*
X0128433Y0214960D01*
X0128800Y0214593D01*
X0128800Y0213859D01*
X0128433Y0213492D01*
X0128800Y0212750D02*
X0127332Y0212750D01*
X0126598Y0212016D01*
X0127332Y0211282D01*
X0128800Y0211282D01*
X0128433Y0210540D02*
X0127699Y0210540D01*
X0127699Y0209807D01*
X0126965Y0210540D02*
X0126598Y0210174D01*
X0126598Y0209440D01*
X0126965Y0209073D01*
X0128433Y0209073D01*
X0128800Y0209440D01*
X0128800Y0210174D01*
X0128433Y0210540D01*
X0127699Y0211282D02*
X0127699Y0212750D01*
X0126965Y0213492D02*
X0126598Y0213859D01*
X0126598Y0214593D01*
X0126965Y0214960D01*
X0127699Y0214593D02*
X0127699Y0214226D01*
X0128800Y0215702D02*
X0127332Y0217170D01*
X0128800Y0217170D02*
X0128800Y0215702D01*
X0128800Y0208331D02*
X0128800Y0206863D01*
X0126598Y0206863D01*
X0126598Y0208331D01*
X0127699Y0207597D02*
X0127699Y0206863D01*
X0126598Y0206121D02*
X0128800Y0206121D01*
X0128800Y0204653D02*
X0126598Y0204653D01*
X0127332Y0205387D01*
X0126598Y0206121D01*
X0126598Y0203911D02*
X0126598Y0202443D01*
X0126598Y0203177D02*
X0128800Y0203177D01*
X0128800Y0201701D02*
X0127332Y0201701D01*
X0126598Y0200967D01*
X0127332Y0200233D01*
X0128800Y0200233D01*
X0127699Y0200233D02*
X0127699Y0201701D01*
X0072639Y0240137D02*
X0070438Y0240137D01*
X0070438Y0241238D01*
X0070804Y0241605D01*
X0071538Y0241605D01*
X0071905Y0241238D01*
X0071905Y0240137D01*
X0071905Y0240871D02*
X0072639Y0241605D01*
X0072639Y0242347D02*
X0072639Y0243815D01*
X0072639Y0243081D02*
X0070438Y0243081D01*
X0071171Y0242347D01*
X0064000Y0163022D02*
X0031500Y0163022D01*
X0031500Y0127022D01*
X0064000Y0127022D01*
X0064000Y0163022D01*
D15*
X0041150Y0161479D02*
X0039048Y0163580D01*
X0034845Y0163580D01*
X0034845Y0165822D02*
X0034845Y0168975D01*
X0035896Y0170026D01*
X0037997Y0170026D01*
X0039048Y0168975D01*
X0039048Y0165822D01*
X0041150Y0165822D02*
X0034845Y0165822D01*
X0039048Y0167924D02*
X0041150Y0170026D01*
X0041150Y0161479D02*
X0039048Y0159377D01*
X0034845Y0159377D01*
X0037997Y0157135D02*
X0037997Y0152931D01*
X0039048Y0150689D02*
X0034845Y0150689D01*
X0039048Y0150689D02*
X0041150Y0148588D01*
X0039048Y0146486D01*
X0034845Y0146486D01*
X0035896Y0144244D02*
X0036946Y0144244D01*
X0037997Y0143193D01*
X0039048Y0144244D01*
X0040099Y0144244D01*
X0041150Y0143193D01*
X0041150Y0141091D01*
X0040099Y0140040D01*
X0040099Y0137868D02*
X0041150Y0137868D01*
X0041150Y0136818D01*
X0040099Y0136818D01*
X0040099Y0137868D01*
X0040099Y0134576D02*
X0039048Y0134576D01*
X0037997Y0133525D01*
X0037997Y0132474D01*
X0037997Y0133525D02*
X0036946Y0134576D01*
X0035896Y0134576D01*
X0034845Y0133525D01*
X0034845Y0131423D01*
X0035896Y0130372D01*
X0040099Y0130372D02*
X0041150Y0131423D01*
X0041150Y0133525D01*
X0040099Y0134576D01*
X0035896Y0140040D02*
X0034845Y0141091D01*
X0034845Y0143193D01*
X0035896Y0144244D01*
X0037997Y0143193D02*
X0037997Y0142142D01*
X0206845Y0253145D02*
X0209997Y0253145D01*
X0208946Y0255246D01*
X0208946Y0256297D01*
X0209997Y0257348D01*
X0212099Y0257348D01*
X0213150Y0256297D01*
X0213150Y0254195D01*
X0212099Y0253145D01*
X0206845Y0253145D02*
X0206845Y0257348D01*
X0206845Y0259590D02*
X0211048Y0259590D01*
X0213150Y0261692D01*
X0211048Y0263794D01*
X0206845Y0263794D01*
X0209997Y0266036D02*
X0209997Y0270239D01*
X0211048Y0272481D02*
X0206845Y0272481D01*
X0206845Y0276685D02*
X0211048Y0276685D01*
X0213150Y0274583D01*
X0211048Y0272481D01*
X0211048Y0278927D02*
X0211048Y0282079D01*
X0209997Y0283130D01*
X0207896Y0283130D01*
X0206845Y0282079D01*
X0206845Y0278927D01*
X0213150Y0278927D01*
X0211048Y0281028D02*
X0213150Y0283130D01*
D16*
X0030300Y0150407D02*
X0028549Y0150407D01*
X0027965Y0149823D01*
X0028549Y0149239D01*
X0030300Y0149239D01*
X0030300Y0148071D02*
X0027965Y0148071D01*
X0027965Y0148655D01*
X0028549Y0149239D01*
X0028549Y0146816D02*
X0030300Y0146816D01*
X0030300Y0145648D02*
X0028549Y0145648D01*
X0027965Y0146232D01*
X0028549Y0146816D01*
X0028549Y0145648D02*
X0027965Y0145064D01*
X0027965Y0144480D01*
X0030300Y0144480D01*
X0030300Y0143225D02*
X0030300Y0140889D01*
X0027965Y0143225D01*
X0027381Y0143225D01*
X0026797Y0142641D01*
X0026797Y0141473D01*
X0027381Y0140889D01*
X0029716Y0139663D02*
X0029716Y0139079D01*
X0030300Y0139079D01*
X0030300Y0139663D01*
X0029716Y0139663D01*
X0030300Y0139663D02*
X0031468Y0138495D01*
X0029716Y0137240D02*
X0028549Y0137240D01*
X0027965Y0136656D01*
X0027965Y0136072D01*
X0028549Y0134904D01*
X0026797Y0134904D01*
X0026797Y0137240D01*
X0026797Y0132481D02*
X0030300Y0132481D01*
X0030300Y0133648D02*
X0030300Y0131313D01*
X0030300Y0130057D02*
X0027965Y0130057D01*
X0026797Y0128890D01*
X0027965Y0127722D01*
X0030300Y0127722D01*
X0028549Y0127722D02*
X0028549Y0130057D01*
X0027965Y0131313D02*
X0026797Y0132481D01*
X0029716Y0134904D02*
X0030300Y0135488D01*
X0030300Y0136656D01*
X0029716Y0137240D01*
D17*
X0068250Y0135022D03*
X0068250Y0145022D03*
X0068250Y0155022D03*
X0179750Y0260022D03*
X0179750Y0270022D03*
X0179750Y0280022D03*
D18*
X0077937Y0253257D02*
X0075235Y0253257D01*
X0076136Y0252357D01*
X0075235Y0251456D01*
X0077937Y0251456D01*
X0077937Y0250311D02*
X0075235Y0250311D01*
X0076586Y0250311D02*
X0076586Y0248509D01*
X0077937Y0248509D02*
X0075235Y0248509D01*
X0075685Y0247364D02*
X0075235Y0246914D01*
X0075235Y0246013D01*
X0075685Y0245563D01*
X0077487Y0245563D01*
X0077937Y0246013D01*
X0077937Y0246914D01*
X0077487Y0247364D01*
X0075685Y0247364D01*
X0075235Y0244418D02*
X0077937Y0244418D01*
X0077937Y0242616D02*
X0075235Y0242616D01*
X0076136Y0243517D01*
X0075235Y0244418D01*
X0075235Y0240570D02*
X0077937Y0240570D01*
X0077937Y0239670D02*
X0077937Y0241471D01*
X0076136Y0239670D02*
X0075235Y0240570D01*
X0164050Y0110598D02*
X0164050Y0107596D01*
X0164050Y0109097D02*
X0159546Y0109097D01*
X0161047Y0107596D01*
X0160297Y0105994D02*
X0163299Y0102992D01*
X0164050Y0103742D01*
X0164050Y0105244D01*
X0163299Y0105994D01*
X0160297Y0105994D01*
X0159546Y0105244D01*
X0159546Y0103742D01*
X0160297Y0102992D01*
X0163299Y0102992D01*
X0163299Y0101390D02*
X0164050Y0100640D01*
X0164050Y0099138D01*
X0163299Y0098388D01*
X0160297Y0101390D01*
X0163299Y0101390D01*
X0160297Y0101390D02*
X0159546Y0100640D01*
X0159546Y0099138D01*
X0160297Y0098388D01*
X0163299Y0098388D01*
X0163299Y0096786D02*
X0164050Y0096036D01*
X0164050Y0094534D01*
X0163299Y0093784D01*
X0162549Y0093784D01*
X0161798Y0094534D01*
X0161798Y0096036D01*
X0162549Y0096786D01*
X0163299Y0096786D01*
X0161798Y0096036D02*
X0161047Y0096786D01*
X0160297Y0096786D01*
X0159546Y0096036D01*
X0159546Y0094534D01*
X0160297Y0093784D01*
X0161047Y0093784D01*
X0161798Y0094534D01*
X0159546Y0092182D02*
X0159546Y0089180D01*
X0164050Y0089180D01*
X0164050Y0087579D02*
X0162549Y0086077D01*
X0162549Y0086828D02*
X0162549Y0084576D01*
X0164050Y0084576D02*
X0159546Y0084576D01*
X0159546Y0086828D01*
X0160297Y0087579D01*
X0161798Y0087579D01*
X0162549Y0086828D01*
X0161798Y0089180D02*
X0161798Y0090681D01*
X0164050Y0082975D02*
X0159546Y0082975D01*
X0159546Y0079972D02*
X0164050Y0082975D01*
X0164050Y0079972D02*
X0159546Y0079972D01*
D19*
X0081500Y0110022D03*
X0081500Y0265022D03*
M02*
