G75*
%MOIN*%
%OFA0B0*%
%FSLAX25Y25*%
%IPPOS*%
%LPD*%
%AMOC8*
5,1,8,0,0,1.08239X$1,22.5*
%
%ADD10R,0.04724X0.07874*%
%ADD11C,0.01181*%
%ADD12R,0.04724X0.05512*%
%ADD13C,0.01772*%
%ADD14R,0.03543X0.03150*%
%ADD15R,0.03937X0.04331*%
%ADD16R,0.04331X0.03937*%
D10*
X0114701Y0121000D03*
X0127299Y0121000D03*
X0314701Y0111000D03*
X0327299Y0111000D03*
D11*
X0182378Y0023075D02*
X0179622Y0023075D01*
X0179622Y0025831D01*
X0182378Y0025831D01*
X0182378Y0023075D01*
X0182378Y0024255D02*
X0179622Y0024255D01*
X0179622Y0025435D02*
X0182378Y0025435D01*
X0170831Y0022378D02*
X0170831Y0019622D01*
X0168075Y0019622D01*
X0168075Y0022378D01*
X0170831Y0022378D01*
X0170831Y0020802D02*
X0168075Y0020802D01*
X0168075Y0021982D02*
X0170831Y0021982D01*
X0163925Y0022378D02*
X0163925Y0019622D01*
X0161169Y0019622D01*
X0161169Y0022378D01*
X0163925Y0022378D01*
X0163925Y0020802D02*
X0161169Y0020802D01*
X0161169Y0021982D02*
X0163925Y0021982D01*
X0179622Y0016169D02*
X0182378Y0016169D01*
X0179622Y0016169D02*
X0179622Y0018925D01*
X0182378Y0018925D01*
X0182378Y0016169D01*
X0182378Y0017349D02*
X0179622Y0017349D01*
X0179622Y0018529D02*
X0182378Y0018529D01*
D12*
X0325094Y0021000D03*
X0336906Y0021000D03*
D13*
X0240724Y0018136D02*
X0240724Y0023864D01*
X0236000Y0023864D02*
X0236000Y0018136D01*
X0231276Y0018136D02*
X0231276Y0023864D01*
D14*
X0121669Y0021000D03*
X0129937Y0017260D03*
X0129937Y0024740D03*
D15*
X0166000Y0122654D03*
X0166000Y0129346D03*
D16*
X0262654Y0021000D03*
X0269346Y0021000D03*
M02*
