G75*
%MOIN*%
%OFA0B0*%
%FSLAX25Y25*%
%IPPOS*%
%LPD*%
%AMOC8*
5,1,8,0,0,1.08239X$1,22.5*
%
%ADD10C,0.07099*%
%ADD11C,0.06800*%
%ADD12C,0.13800*%
%ADD13C,0.08200*%
%ADD14R,0.08674X0.05524*%
%ADD15R,0.05524X0.08674*%
%ADD16C,0.01421*%
%ADD17R,0.06312X0.05524*%
%ADD18C,0.02572*%
%ADD19R,0.06040X0.13760*%
%ADD20R,0.04343X0.03950*%
%ADD21C,0.07400*%
%ADD22C,0.04000*%
%ADD23C,0.04123*%
%ADD24R,0.04737X0.05131*%
%ADD25C,0.07874*%
D10*
X0122563Y0025022D03*
X0130437Y0025022D03*
X0130437Y0310022D03*
X0122563Y0310022D03*
D11*
X0168500Y0280022D02*
X0174500Y0280022D01*
X0174500Y0270022D02*
X0168500Y0270022D01*
X0168500Y0260022D02*
X0174500Y0260022D01*
X0079500Y0155022D02*
X0073500Y0155022D01*
X0073500Y0145022D02*
X0079500Y0145022D01*
X0079500Y0135022D02*
X0073500Y0135022D01*
D12*
X0017500Y0145022D03*
X0230500Y0270022D03*
D13*
X0171500Y0175022D03*
X0171500Y0165022D03*
X0171500Y0155022D03*
X0171500Y0145022D03*
X0171500Y0135022D03*
X0171500Y0125022D03*
X0171500Y0115022D03*
X0171500Y0105022D03*
X0171500Y0095022D03*
X0171500Y0085022D03*
X0141500Y0095022D03*
X0141500Y0105022D03*
X0141500Y0115022D03*
X0141500Y0125022D03*
X0141500Y0135022D03*
X0141500Y0145022D03*
X0141500Y0155022D03*
X0141500Y0165022D03*
X0141500Y0175022D03*
X0141500Y0185022D03*
X0141500Y0195022D03*
X0141500Y0205022D03*
X0141500Y0215022D03*
X0141500Y0225022D03*
X0111500Y0225022D03*
X0111500Y0215022D03*
X0111500Y0205022D03*
X0111500Y0195022D03*
X0111500Y0185022D03*
X0111500Y0175022D03*
X0111500Y0165022D03*
X0111500Y0155022D03*
X0111500Y0145022D03*
X0111500Y0135022D03*
X0111500Y0125022D03*
X0111500Y0115022D03*
X0111500Y0105022D03*
X0111500Y0095022D03*
D14*
X0081500Y0278723D03*
X0081500Y0291321D03*
D15*
X0075201Y0180022D03*
X0087799Y0180022D03*
D16*
X0179842Y0219911D02*
X0183158Y0219911D01*
X0179842Y0219911D02*
X0179842Y0223227D01*
X0183158Y0223227D01*
X0183158Y0219911D01*
X0183158Y0221331D02*
X0179842Y0221331D01*
X0179842Y0222751D02*
X0183158Y0222751D01*
X0183158Y0226817D02*
X0179842Y0226817D01*
X0179842Y0230133D01*
X0183158Y0230133D01*
X0183158Y0226817D01*
X0183158Y0228237D02*
X0179842Y0228237D01*
X0179842Y0229657D02*
X0183158Y0229657D01*
X0183158Y0238227D02*
X0179842Y0238227D01*
X0183158Y0238227D02*
X0183158Y0234911D01*
X0179842Y0234911D01*
X0179842Y0238227D01*
X0179842Y0236331D02*
X0183158Y0236331D01*
X0183158Y0237751D02*
X0179842Y0237751D01*
X0179842Y0245133D02*
X0183158Y0245133D01*
X0183158Y0241817D01*
X0179842Y0241817D01*
X0179842Y0245133D01*
X0179842Y0243237D02*
X0183158Y0243237D01*
X0183158Y0244657D02*
X0179842Y0244657D01*
D17*
X0081500Y0079117D03*
X0081500Y0090928D03*
D18*
X0198636Y0090298D02*
X0204364Y0090298D01*
X0204364Y0095022D02*
X0198636Y0095022D01*
X0198636Y0099746D02*
X0204364Y0099746D01*
D19*
X0201490Y0095032D03*
D20*
X0135831Y0045022D03*
X0127563Y0041282D03*
X0127563Y0048762D03*
D21*
X0076500Y0235180D03*
X0076500Y0254865D03*
D22*
X0171500Y0190022D03*
D23*
X0171500Y0220022D03*
D24*
X0081500Y0261676D03*
X0081500Y0268369D03*
X0081500Y0113369D03*
X0081500Y0106676D03*
D25*
X0067563Y0220022D02*
X0067565Y0220147D01*
X0067571Y0220272D01*
X0067581Y0220396D01*
X0067595Y0220520D01*
X0067612Y0220644D01*
X0067634Y0220767D01*
X0067660Y0220889D01*
X0067689Y0221011D01*
X0067722Y0221131D01*
X0067760Y0221250D01*
X0067800Y0221369D01*
X0067845Y0221485D01*
X0067893Y0221600D01*
X0067945Y0221714D01*
X0068001Y0221826D01*
X0068060Y0221936D01*
X0068122Y0222044D01*
X0068188Y0222151D01*
X0068257Y0222255D01*
X0068330Y0222356D01*
X0068405Y0222456D01*
X0068484Y0222553D01*
X0068566Y0222647D01*
X0068651Y0222739D01*
X0068738Y0222828D01*
X0068829Y0222914D01*
X0068922Y0222997D01*
X0069018Y0223078D01*
X0069116Y0223155D01*
X0069216Y0223229D01*
X0069319Y0223300D01*
X0069424Y0223367D01*
X0069532Y0223432D01*
X0069641Y0223492D01*
X0069752Y0223550D01*
X0069865Y0223603D01*
X0069979Y0223653D01*
X0070095Y0223700D01*
X0070212Y0223742D01*
X0070331Y0223781D01*
X0070451Y0223817D01*
X0070572Y0223848D01*
X0070694Y0223876D01*
X0070816Y0223899D01*
X0070940Y0223919D01*
X0071064Y0223935D01*
X0071188Y0223947D01*
X0071313Y0223955D01*
X0071438Y0223959D01*
X0071562Y0223959D01*
X0071687Y0223955D01*
X0071812Y0223947D01*
X0071936Y0223935D01*
X0072060Y0223919D01*
X0072184Y0223899D01*
X0072306Y0223876D01*
X0072428Y0223848D01*
X0072549Y0223817D01*
X0072669Y0223781D01*
X0072788Y0223742D01*
X0072905Y0223700D01*
X0073021Y0223653D01*
X0073135Y0223603D01*
X0073248Y0223550D01*
X0073359Y0223492D01*
X0073469Y0223432D01*
X0073576Y0223367D01*
X0073681Y0223300D01*
X0073784Y0223229D01*
X0073884Y0223155D01*
X0073982Y0223078D01*
X0074078Y0222997D01*
X0074171Y0222914D01*
X0074262Y0222828D01*
X0074349Y0222739D01*
X0074434Y0222647D01*
X0074516Y0222553D01*
X0074595Y0222456D01*
X0074670Y0222356D01*
X0074743Y0222255D01*
X0074812Y0222151D01*
X0074878Y0222044D01*
X0074940Y0221936D01*
X0074999Y0221826D01*
X0075055Y0221714D01*
X0075107Y0221600D01*
X0075155Y0221485D01*
X0075200Y0221369D01*
X0075240Y0221250D01*
X0075278Y0221131D01*
X0075311Y0221011D01*
X0075340Y0220889D01*
X0075366Y0220767D01*
X0075388Y0220644D01*
X0075405Y0220520D01*
X0075419Y0220396D01*
X0075429Y0220272D01*
X0075435Y0220147D01*
X0075437Y0220022D01*
X0075435Y0219897D01*
X0075429Y0219772D01*
X0075419Y0219648D01*
X0075405Y0219524D01*
X0075388Y0219400D01*
X0075366Y0219277D01*
X0075340Y0219155D01*
X0075311Y0219033D01*
X0075278Y0218913D01*
X0075240Y0218794D01*
X0075200Y0218675D01*
X0075155Y0218559D01*
X0075107Y0218444D01*
X0075055Y0218330D01*
X0074999Y0218218D01*
X0074940Y0218108D01*
X0074878Y0218000D01*
X0074812Y0217893D01*
X0074743Y0217789D01*
X0074670Y0217688D01*
X0074595Y0217588D01*
X0074516Y0217491D01*
X0074434Y0217397D01*
X0074349Y0217305D01*
X0074262Y0217216D01*
X0074171Y0217130D01*
X0074078Y0217047D01*
X0073982Y0216966D01*
X0073884Y0216889D01*
X0073784Y0216815D01*
X0073681Y0216744D01*
X0073576Y0216677D01*
X0073468Y0216612D01*
X0073359Y0216552D01*
X0073248Y0216494D01*
X0073135Y0216441D01*
X0073021Y0216391D01*
X0072905Y0216344D01*
X0072788Y0216302D01*
X0072669Y0216263D01*
X0072549Y0216227D01*
X0072428Y0216196D01*
X0072306Y0216168D01*
X0072184Y0216145D01*
X0072060Y0216125D01*
X0071936Y0216109D01*
X0071812Y0216097D01*
X0071687Y0216089D01*
X0071562Y0216085D01*
X0071438Y0216085D01*
X0071313Y0216089D01*
X0071188Y0216097D01*
X0071064Y0216109D01*
X0070940Y0216125D01*
X0070816Y0216145D01*
X0070694Y0216168D01*
X0070572Y0216196D01*
X0070451Y0216227D01*
X0070331Y0216263D01*
X0070212Y0216302D01*
X0070095Y0216344D01*
X0069979Y0216391D01*
X0069865Y0216441D01*
X0069752Y0216494D01*
X0069641Y0216552D01*
X0069531Y0216612D01*
X0069424Y0216677D01*
X0069319Y0216744D01*
X0069216Y0216815D01*
X0069116Y0216889D01*
X0069018Y0216966D01*
X0068922Y0217047D01*
X0068829Y0217130D01*
X0068738Y0217216D01*
X0068651Y0217305D01*
X0068566Y0217397D01*
X0068484Y0217491D01*
X0068405Y0217588D01*
X0068330Y0217688D01*
X0068257Y0217789D01*
X0068188Y0217893D01*
X0068122Y0218000D01*
X0068060Y0218108D01*
X0068001Y0218218D01*
X0067945Y0218330D01*
X0067893Y0218444D01*
X0067845Y0218559D01*
X0067800Y0218675D01*
X0067760Y0218794D01*
X0067722Y0218913D01*
X0067689Y0219033D01*
X0067660Y0219155D01*
X0067634Y0219277D01*
X0067612Y0219400D01*
X0067595Y0219524D01*
X0067581Y0219648D01*
X0067571Y0219772D01*
X0067565Y0219897D01*
X0067563Y0220022D01*
M02*
