G75*
%MOIN*%
%OFA0B0*%
%FSLAX25Y25*%
%IPPOS*%
%LPD*%
%AMOC8*
5,1,8,0,0,1.08239X$1,22.5*
%
%ADD10C,0.06299*%
%ADD11C,0.06000*%
%ADD12C,0.07400*%
%ADD13C,0.06600*%
%ADD14C,0.01000*%
%ADD15C,0.04000*%
D10*
X0046000Y0067063D03*
X0046000Y0074937D03*
X0381000Y0069937D03*
X0381000Y0062063D03*
D11*
X0099000Y0036000D02*
X0093000Y0036000D01*
X0093000Y0026000D02*
X0099000Y0026000D01*
X0099000Y0016000D02*
X0093000Y0016000D01*
X0093000Y0101000D02*
X0099000Y0101000D01*
X0099000Y0111000D02*
X0093000Y0111000D01*
X0093000Y0121000D02*
X0099000Y0121000D01*
D12*
X0151000Y0081000D03*
X0161000Y0081000D03*
X0171000Y0081000D03*
X0181000Y0081000D03*
X0191000Y0081000D03*
X0201000Y0081000D03*
X0211000Y0081000D03*
X0221000Y0081000D03*
X0231000Y0081000D03*
X0241000Y0081000D03*
X0251000Y0081000D03*
X0261000Y0081000D03*
X0271000Y0081000D03*
X0281000Y0081000D03*
X0281000Y0051000D03*
X0271000Y0051000D03*
X0261000Y0051000D03*
X0251000Y0051000D03*
X0241000Y0051000D03*
X0231000Y0051000D03*
X0221000Y0051000D03*
X0211000Y0051000D03*
X0201000Y0051000D03*
X0191000Y0051000D03*
X0181000Y0051000D03*
X0171000Y0051000D03*
X0161000Y0051000D03*
X0151000Y0051000D03*
X0191000Y0021000D03*
X0221000Y0021000D03*
X0241000Y0126000D03*
X0251000Y0126000D03*
X0261000Y0126000D03*
X0271000Y0126000D03*
X0281000Y0126000D03*
X0291000Y0126000D03*
X0301000Y0126000D03*
X0311000Y0126000D03*
X0321000Y0126000D03*
X0331000Y0126000D03*
D13*
X0351000Y0100843D03*
X0351000Y0081157D03*
D14*
X0046000Y0067063D02*
X0026000Y0011000D01*
X0088000Y0023500D02*
X0095200Y0016300D01*
X0096000Y0016000D01*
X0088000Y0023500D02*
X0088000Y0031600D01*
X0046600Y0073000D01*
X0046600Y0074800D01*
X0046000Y0074937D01*
X0096100Y0121600D02*
X0121300Y0121600D01*
X0179800Y0121600D01*
X0220300Y0081100D01*
X0221000Y0081000D01*
X0218500Y0075700D02*
X0236500Y0075700D01*
X0241000Y0080200D01*
X0241000Y0081000D01*
X0218500Y0075700D02*
X0196000Y0053200D01*
X0196000Y0048700D01*
X0220300Y0024400D01*
X0220300Y0021700D01*
X0221000Y0021000D01*
X0188800Y0015400D02*
X0285100Y0015400D01*
X0350800Y0081100D01*
X0351000Y0081157D01*
X0374200Y0070300D02*
X0380500Y0070300D01*
X0381000Y0069937D01*
X0374200Y0070300D02*
X0321100Y0123400D01*
X0321100Y0125200D01*
X0321000Y0126000D01*
X0301000Y0126000D02*
X0300400Y0125200D01*
X0281500Y0106300D01*
X0281500Y0081100D01*
X0281000Y0081000D01*
X0188800Y0015400D02*
X0153700Y0050500D01*
X0151000Y0050500D01*
X0151000Y0051000D01*
D15*
X0121300Y0121600D03*
M02*
